<?xml version="1.0" encoding="UTF-8"?>
<!DOCTYPE svg PUBLIC "-//W3C//DTD SVG 1.1//EN" "http://www.w3.org/Graphics/SVG/1.1/DTD/svg11.dtd">
<svg xmlns="http://www.w3.org/2000/svg" version="1.1" width="250px" height="250px" style="shape-rendering:geometricPrecision; text-rendering:geometricPrecision; image-rendering:optimizeQuality; fill-rule:evenodd; clip-rule:evenodd" xmlns:xlink="http://www.w3.org/1999/xlink">
<g><path style="opacity:0.66" fill="#e7ddc5" d="M 46.5,16.5 C 45.8333,17.1667 45.1667,17.8333 44.5,18.5C 35.6762,17.3427 26.6762,17.176 17.5,18C 12.8445,19.9927 8.51119,22.4927 4.5,25.5C 4.83997,23.321 5.83997,21.4877 7.5,20C 15.3756,15.697 24.2089,13.8637 34,14.5C 37.8333,14.6667 41.6667,14.8333 45.5,15C 46.056,15.3826 46.3893,15.8826 46.5,16.5 Z"/></g>
<g><path style="opacity:1" fill="#fbc424" d="M 44.5,18.5 C 49.3706,27.4234 50.7039,36.7567 48.5,46.5C 48.5,43.8333 48.5,41.1667 48.5,38.5C 47.1875,40.2819 45.1875,41.6153 42.5,42.5C 41.8333,42.3333 41.1667,42.1667 40.5,42C 42.5254,40.806 42.8587,39.306 41.5,37.5C 40.2243,36.3554 38.891,36.3554 37.5,37.5C 36.8333,36.8333 36.1667,36.1667 35.5,35.5C 34.479,36.0016 34.3123,36.6683 35,37.5C 36.8254,38.1029 38.6587,38.7696 40.5,39.5C 40.1667,40.5 39.5,41.1667 38.5,41.5C 36.3984,39.7959 34.0651,38.4626 31.5,37.5C 30.1667,38.1667 30.1667,38.8333 31.5,39.5C 32.7946,40.0983 34.1279,40.5983 35.5,41C 33.5405,41.9309 31.5405,42.7643 29.5,43.5C 28.3044,43.1543 28.3044,42.6543 29.5,42C 28.2559,41.5439 27.4226,42.0439 27,43.5C 26.3076,42.9747 25.8076,42.3081 25.5,41.5C 26.6651,40.4164 27.9984,39.5831 29.5,39C 28.8333,38.6667 28.1667,38.3333 27.5,38C 28.7112,37.1072 28.7112,36.2739 27.5,35.5C 26.0871,37.3683 24.9204,39.3683 24,41.5C 22.1746,40.8971 20.3413,40.2304 18.5,39.5C 19.2624,39.0894 20.2624,38.9227 21.5,39C 19.8812,37.0768 18.0479,36.5768 16,37.5C 14.0924,34.6677 13.259,35.001 13.5,38.5C 11.6096,38.7035 10.1096,38.0368 9,36.5C 8.83333,36.8333 8.66667,37.1667 8.5,37.5C 8.90215,39.4907 9.56881,41.3241 10.5,43C 9.16667,43.3333 7.83333,43.6667 6.5,44C 6.62949,47.9549 6.62949,52.1216 6.5,56.5C 4.15851,46.3806 3.49185,36.0472 4.5,25.5C 8.51119,22.4927 12.8445,19.9927 17.5,18C 26.6762,17.176 35.6762,17.3427 44.5,18.5 Z"/></g>
<g><path style="opacity:1" fill="#fbc319" d="M 116.5,27.5 C 116.827,32.2137 116.493,36.8804 115.5,41.5C 114.188,42.4604 112.854,42.2937 111.5,41C 112.5,40.6667 113.5,40.3333 114.5,40C 112.302,39.6271 110.135,39.1271 108,38.5C 107.5,38.8333 107,39.1667 106.5,39.5C 111.262,40.0601 111.595,41.3934 107.5,43.5C 106.808,42.9747 106.308,42.3081 106,41.5C 101.651,43.2533 100.818,42.42 103.5,39C 103.167,38.8333 102.833,38.6667 102.5,38.5C 101.719,39.7366 100.719,40.7366 99.5,41.5C 95.9655,39.2332 92.2988,37.2332 88.5,35.5C 87.0871,37.3683 85.9204,39.3683 85,41.5C 83.6012,40.7734 82.1012,40.2734 80.5,40C 81.1667,39.6667 81.8333,39.3333 82.5,39C 81.1095,37.98 79.6095,37.1466 78,36.5C 77.3086,38.8912 76.3086,38.8912 75,36.5C 74.5831,37.756 73.7498,38.4226 72.5,38.5C 72.5,32.5 72.5,26.5 72.5,20.5C 77.2374,20.1194 81.9041,19.2861 86.5,18C 92.8333,17.3333 99.1667,17.3333 105.5,18C 109.359,21.0316 113.026,24.1983 116.5,27.5 Z"/></g>
<g><path style="opacity:0.722" fill="#e8dec4" d="M 118.5,30.5 C 118.167,30.5 117.833,30.5 117.5,30.5C 117.737,29.209 117.404,28.209 116.5,27.5C 113.026,24.1983 109.359,21.0316 105.5,18C 99.1667,17.3333 92.8333,17.3333 86.5,18C 81.9041,19.2861 77.2374,20.1194 72.5,20.5C 72.5,26.5 72.5,32.5 72.5,38.5C 72.5,44.8333 72.5,51.1667 72.5,57.5C 72.8222,63.358 72.4889,69.0247 71.5,74.5C 71.1741,55.9235 71.5075,37.4235 72.5,19C 82.8512,15.1042 93.5179,13.7708 104.5,15C 109.213,17.3705 113.379,20.5372 117,24.5C 118.128,26.3453 118.628,28.3453 118.5,30.5 Z"/></g>
<g><path style="opacity:0.915" fill="#eae4d3" d="M 174.5,61.5 C 174.829,48.3226 174.495,35.3226 173.5,22.5C 169.354,21.353 165.02,21.1864 160.5,22C 154.093,29.684 151.093,28.8506 151.5,19.5C 144.401,19.3413 137.401,20.008 130.5,21.5C 130.167,21.5 129.833,21.5 129.5,21.5C 129.167,21.5 128.833,21.5 128.5,21.5C 128.5,20.5 128.5,19.5 128.5,18.5C 136.109,17.0805 143.775,16.5805 151.5,17C 152.282,19.7405 152.782,22.5738 153,25.5C 155.828,23.6323 158.328,21.4656 160.5,19C 164.833,18.3333 169.167,18.3333 173.5,19C 174.126,19.7504 174.626,20.5838 175,21.5C 175.827,35.0064 175.66,48.3397 174.5,61.5 Z"/></g>
<g><path style="opacity:1" fill="#fbc318" d="M 173.5,22.5 C 173.5,28.1667 173.5,33.8333 173.5,39.5C 171.655,39.14 169.655,39.14 167.5,39.5C 170.777,40.4793 171.11,41.8127 168.5,43.5C 166.224,42.7868 163.891,42.2868 161.5,42C 163.525,40.806 163.859,39.306 162.5,37.5C 161.609,36.4104 160.609,36.4104 159.5,37.5C 158.784,36.689 157.95,36.0223 157,35.5C 156.426,36.3542 155.759,37.3542 155,38.5C 153.838,37.8132 152.672,37.6466 151.5,38C 154.118,39.9738 153.952,41.8071 151,43.5C 145.486,43.2493 145.32,41.7493 150.5,39C 149.306,34.5965 147.973,34.7631 146.5,39.5C 142.748,40.9855 139.415,40.3188 136.5,37.5C 134.941,38.0736 133.441,38.7402 132,39.5C 131.289,37.6332 131.789,36.1332 133.5,35C 132.922,33.583 131.922,32.7496 130.5,32.5C 130.5,28.8333 130.5,25.1667 130.5,21.5C 137.401,20.008 144.401,19.3413 151.5,19.5C 151.093,28.8506 154.093,29.684 160.5,22C 165.02,21.1864 169.354,21.353 173.5,22.5 Z"/></g>
<g><path style="opacity:0.924" fill="#e9e0c8" d="M 244.5,37.5 C 244.5,32.8333 244.5,28.1667 244.5,23.5C 229.818,23.1674 215.152,23.5007 200.5,24.5C 200.058,25.7387 199.391,26.7387 198.5,27.5C 199.096,25.602 199.096,23.9354 198.5,22.5C 200.759,20.2445 203.592,19.2445 207,19.5C 219.153,20.2392 231.32,20.7392 243.5,21C 244,21.5 244.5,22 245,22.5C 245.816,27.6842 245.65,32.6842 244.5,37.5 Z"/></g>
<g><path style="opacity:1" fill="#d3bda0" d="M 46.5,16.5 C 48.0981,18.6979 49.4314,21.0313 50.5,23.5C 49.6365,22.537 48.9698,22.537 48.5,23.5C 50.3131,29.6767 50.9798,36.01 50.5,42.5C 49.9198,46.81 49.5865,51.1434 49.5,55.5C 48.5151,59.6344 48.1818,63.9677 48.5,68.5C 47.5166,64.7016 47.1832,60.7016 47.5,56.5C 48.3242,53.2356 48.6576,49.9023 48.5,46.5C 50.7039,36.7567 49.3706,27.4234 44.5,18.5C 45.1667,17.8333 45.8333,17.1667 46.5,16.5 Z"/></g>
<g><path style="opacity:1" fill="#fbc318" d="M 244.5,37.5 C 244.5,37.8333 244.5,38.1667 244.5,38.5C 242.674,33.0928 241.674,33.4261 241.5,39.5C 238.402,39.5875 238.068,39.0875 240.5,38C 239.069,37.5348 237.903,36.7014 237,35.5C 234.175,36.5842 234.008,37.7508 236.5,39C 236,39.1667 235.5,39.3333 235,39.5C 233.584,38.4267 232.25,38.4267 231,39.5C 229.667,38.8333 228.667,37.8333 228,36.5C 226.548,37.9071 226.715,39.4071 228.5,41C 226.635,42.3014 224.635,42.6347 222.5,42C 224.007,41.1627 224.507,39.9961 224,38.5C 222.981,39.6872 221.814,40.6872 220.5,41.5C 217.692,38.8197 214.525,37.8197 211,38.5C 210.717,35.2577 209.883,34.9244 208.5,37.5C 208.709,38.086 209.043,38.586 209.5,39C 208.069,39.4652 206.903,40.2986 206,41.5C 204.601,40.7734 203.101,40.2734 201.5,40C 202.167,39.6667 202.833,39.3333 203.5,39C 202.09,37.6283 200.423,36.795 198.5,36.5C 198.5,33.5 198.5,30.5 198.5,27.5C 199.391,26.7387 200.058,25.7387 200.5,24.5C 215.152,23.5007 229.818,23.1674 244.5,23.5C 244.5,28.1667 244.5,32.8333 244.5,37.5 Z"/></g>
<g><path style="opacity:0.541" fill="#baa79d" d="M 50.5,23.5 C 52.2624,24.2623 53.2624,25.5956 53.5,27.5C 51.7376,26.7377 50.7376,25.4044 50.5,23.5 Z"/></g>
<g><path style="opacity:0.992" fill="#b18d80" d="M 53.5,27.5 C 54.5375,28.9303 55.2041,30.597 55.5,32.5C 53.7868,31.3646 53.1201,29.698 53.5,27.5 Z"/></g>
<g><path style="opacity:0.594" fill="#c09b8a" d="M 128.5,21.5 C 128.833,21.5 129.167,21.5 129.5,21.5C 129.176,48.5741 129.509,75.5741 130.5,102.5C 130.737,103.791 130.404,104.791 129.5,105.5C 128.502,77.6716 128.169,49.6716 128.5,21.5 Z"/></g>
<g><path style="opacity:1" fill="#a07060" d="M 195.5,27.5 C 195.408,29.8477 194.408,31.5144 192.5,32.5C 192.75,30.326 193.75,28.6594 195.5,27.5 Z"/></g>
<g><path style="opacity:1" fill="#c5ac97" d="M 198.5,22.5 C 199.096,23.9354 199.096,25.602 198.5,27.5C 198.5,30.5 198.5,33.5 198.5,36.5C 197.509,42.979 197.176,49.6457 197.5,56.5C 197.167,56.5 196.833,56.5 196.5,56.5C 196.167,56.5 195.833,56.5 195.5,56.5C 196.29,46.4932 196.79,36.4932 197,26.5C 196.617,27.056 196.117,27.3893 195.5,27.5C 196.11,25.5659 197.11,23.8993 198.5,22.5 Z"/></g>
<g><path style="opacity:1" fill="#7f3b29" d="M 50.5,23.5 C 50.7376,25.4044 51.7376,26.7377 53.5,27.5C 53.1201,29.698 53.7868,31.3646 55.5,32.5C 55.4095,35.1522 56.0762,37.4855 57.5,39.5C 58.8333,44.8333 58.8333,50.1667 57.5,55.5C 56.8333,57.1667 56.1667,58.8333 55.5,60.5C 56.2643,52.8147 55.0976,45.4814 52,38.5C 51.79,40.0581 51.29,41.3915 50.5,42.5C 50.9798,36.01 50.3131,29.6767 48.5,23.5C 48.9698,22.537 49.6365,22.537 50.5,23.5 Z"/></g>
<g><path style="opacity:1" fill="#b4887a" d="M 192.5,32.5 C 191.073,40.2105 190.073,47.8772 189.5,55.5C 189.334,49.4908 189.501,43.4908 190,37.5C 190.374,35.5087 191.207,33.842 192.5,32.5 Z"/></g>
<g><path style="opacity:1" fill="#fabd17" d="M 48.5,46.5 C 48.6576,49.9023 48.3242,53.2356 47.5,56.5C 45.8008,56.6602 44.1341,56.4935 42.5,56C 43.9928,54.8438 43.8261,54.0104 42,53.5C 40.5213,54.8731 40.688,56.3731 42.5,58C 40.8333,58.6667 39.1667,58.6667 37.5,58C 38.9561,57.5774 39.4561,56.7441 39,55.5C 34.8965,58.3052 31.7298,58.1385 29.5,55C 27.5594,54.2571 25.7261,54.4238 24,55.5C 23.6924,54.6919 23.1924,54.0253 22.5,53.5C 22.1654,54.664 22.1654,55.9974 22.5,57.5C 26.0613,58.7607 29.7279,59.594 33.5,60C 32.5,60.5 31.5,61 30.5,61.5C 28.2741,60.9117 25.9408,60.5784 23.5,60.5C 22.8076,61.0253 22.3076,61.6919 22,62.5C 19.0561,61.6051 16.3894,59.6051 14,56.5C 12.0934,58.103 10.5934,57.7697 9.5,55.5C 8.48224,56.1925 7.48224,56.8592 6.5,57.5C 6.5,57.1667 6.5,56.8333 6.5,56.5C 6.62949,52.1216 6.62949,47.9549 6.5,44C 7.83333,43.6667 9.16667,43.3333 10.5,43C 9.56881,41.3241 8.90215,39.4907 8.5,37.5C 8.66667,37.1667 8.83333,36.8333 9,36.5C 10.1096,38.0368 11.6096,38.7035 13.5,38.5C 13.259,35.001 14.0924,34.6677 16,37.5C 18.0479,36.5768 19.8812,37.0768 21.5,39C 20.2624,38.9227 19.2624,39.0894 18.5,39.5C 20.3413,40.2304 22.1746,40.8971 24,41.5C 24.9204,39.3683 26.0871,37.3683 27.5,35.5C 28.7112,36.2739 28.7112,37.1072 27.5,38C 28.1667,38.3333 28.8333,38.6667 29.5,39C 27.9984,39.5831 26.6651,40.4164 25.5,41.5C 25.8076,42.3081 26.3076,42.9747 27,43.5C 27.4226,42.0439 28.2559,41.5439 29.5,42C 28.3044,42.6543 28.3044,43.1543 29.5,43.5C 31.5405,42.7643 33.5405,41.9309 35.5,41C 34.1279,40.5983 32.7946,40.0983 31.5,39.5C 30.1667,38.8333 30.1667,38.1667 31.5,37.5C 34.0651,38.4626 36.3984,39.7959 38.5,41.5C 39.5,41.1667 40.1667,40.5 40.5,39.5C 38.6587,38.7696 36.8254,38.1029 35,37.5C 34.3123,36.6683 34.479,36.0016 35.5,35.5C 36.1667,36.1667 36.8333,36.8333 37.5,37.5C 38.891,36.3554 40.2243,36.3554 41.5,37.5C 42.8587,39.306 42.5254,40.806 40.5,42C 41.1667,42.1667 41.8333,42.3333 42.5,42.5C 45.1875,41.6153 47.1875,40.2819 48.5,38.5C 48.5,41.1667 48.5,43.8333 48.5,46.5 Z"/></g>
<g><path style="opacity:0.573" fill="#bc9b8f" d="M 55.5,32.5 C 56.9238,34.5145 57.5905,36.8478 57.5,39.5C 56.0762,37.4855 55.4095,35.1522 55.5,32.5 Z"/></g>
<g><path style="opacity:1" fill="#6c2d1f" d="M 195.5,56.5 C 195.5,68.1667 195.5,79.8333 195.5,91.5C 195.167,91.5 194.833,91.5 194.5,91.5C 194.831,83.4723 194.498,75.4723 193.5,67.5C 192.757,68.9079 191.923,70.2412 191,71.5C 190.301,77.4888 189.801,83.4888 189.5,89.5C 188.527,87.0521 188.194,84.3854 188.5,81.5C 188.197,72.7489 188.53,64.0823 189.5,55.5C 190.073,47.8772 191.073,40.2105 192.5,32.5C 194.408,31.5144 195.408,29.8477 195.5,27.5C 196.117,27.3893 196.617,27.056 197,26.5C 196.79,36.4932 196.29,46.4932 195.5,56.5 Z"/></g>
<g><path style="opacity:1" fill="#fabe1b" d="M 244.5,38.5 C 244.5,42.1667 244.5,45.8333 244.5,49.5C 244.058,52.4466 242.892,55.1133 241,57.5C 240.383,56.5509 240.549,55.7175 241.5,55C 239.269,53.7227 237.602,51.8894 236.5,49.5C 236.12,51.0207 235.954,52.6874 236,54.5C 235.667,53.8333 235.333,53.1667 235,52.5C 234.751,53.624 234.251,54.624 233.5,55.5C 232.672,54.5853 231.672,53.9186 230.5,53.5C 229.068,53.7332 228.568,54.3999 229,55.5C 229.718,54.5494 230.551,54.3828 231.5,55C 229.386,56.518 227.053,56.8513 224.5,56C 225.711,55.1072 225.711,54.2739 224.5,53.5C 222.974,54.9056 221.307,56.0723 219.5,57C 220.549,57.4922 221.549,57.3256 222.5,56.5C 223.308,56.8076 223.975,57.3076 224.5,58C 219.702,58.6552 215.035,59.8219 210.5,61.5C 212.078,62.2978 213.744,62.7978 215.5,63C 214.747,64.487 213.914,64.6537 213,63.5C 211.754,66.493 209.587,66.993 206.5,65C 210.449,64.1932 210.449,63.6932 206.5,63.5C 206.434,59.247 204.934,58.5803 202,61.5C 199.328,60.8385 197.828,59.1719 197.5,56.5C 197.176,49.6457 197.509,42.979 198.5,36.5C 200.423,36.795 202.09,37.6283 203.5,39C 202.833,39.3333 202.167,39.6667 201.5,40C 203.101,40.2734 204.601,40.7734 206,41.5C 206.903,40.2986 208.069,39.4652 209.5,39C 209.043,38.586 208.709,38.086 208.5,37.5C 209.883,34.9244 210.717,35.2577 211,38.5C 214.525,37.8197 217.692,38.8197 220.5,41.5C 221.814,40.6872 222.981,39.6872 224,38.5C 224.507,39.9961 224.007,41.1627 222.5,42C 224.635,42.6347 226.635,42.3014 228.5,41C 226.715,39.4071 226.548,37.9071 228,36.5C 228.667,37.8333 229.667,38.8333 231,39.5C 232.25,38.4267 233.584,38.4267 235,39.5C 235.5,39.3333 236,39.1667 236.5,39C 234.008,37.7508 234.175,36.5842 237,35.5C 237.903,36.7014 239.069,37.5348 240.5,38C 238.068,39.0875 238.402,39.5875 241.5,39.5C 241.674,33.4261 242.674,33.0928 244.5,38.5 Z"/></g>
<g><path style="opacity:1" fill="#fabd1b" d="M 116.5,27.5 C 117.404,28.209 117.737,29.209 117.5,30.5C 117.5,40.1667 117.5,49.8333 117.5,59.5C 117.296,62.5176 116.963,65.5176 116.5,68.5C 114.43,67.4927 112.43,67.826 110.5,69.5C 109.833,68.5 109.167,67.5 108.5,66.5C 105.888,66.9294 104.388,67.9294 104,69.5C 102.374,68.7113 100.874,67.7113 99.5,66.5C 98.914,66.7093 98.414,67.0426 98,67.5C 97.5348,66.0692 96.7014,64.9025 95.5,64C 96.9561,63.5774 97.4561,62.7441 97,61.5C 94.5603,62.2738 93.227,63.9405 93,66.5C 92.7508,65.376 92.2508,64.376 91.5,63.5C 89.1192,65.3925 86.4525,65.8925 83.5,65C 82.3044,64.3457 82.3044,63.8457 83.5,63.5C 84.7678,64.4279 86.1011,64.5946 87.5,64C 85.2385,63.2988 84.2385,62.1322 84.5,60.5C 83.4593,62.9913 82.6259,62.9913 82,60.5C 81.2588,61.6405 80.4255,61.6405 79.5,60.5C 78.8679,62.7368 77.5346,64.4035 75.5,65.5C 75.1667,65.1667 74.8333,64.8333 74.5,64.5C 77.4291,63.3514 77.9291,61.6847 76,59.5C 75.3333,60.1667 74.6667,60.8333 74,61.5C 73.79,59.9419 73.29,58.6085 72.5,57.5C 72.5,51.1667 72.5,44.8333 72.5,38.5C 73.7498,38.4226 74.5831,37.756 75,36.5C 76.3086,38.8912 77.3086,38.8912 78,36.5C 79.6095,37.1466 81.1095,37.98 82.5,39C 81.8333,39.3333 81.1667,39.6667 80.5,40C 82.1012,40.2734 83.6012,40.7734 85,41.5C 85.9204,39.3683 87.0871,37.3683 88.5,35.5C 92.2988,37.2332 95.9655,39.2332 99.5,41.5C 100.719,40.7366 101.719,39.7366 102.5,38.5C 102.833,38.6667 103.167,38.8333 103.5,39C 100.818,42.42 101.651,43.2533 106,41.5C 106.308,42.3081 106.808,42.9747 107.5,43.5C 111.595,41.3934 111.262,40.0601 106.5,39.5C 107,39.1667 107.5,38.8333 108,38.5C 110.135,39.1271 112.302,39.6271 114.5,40C 113.5,40.3333 112.5,40.6667 111.5,41C 112.854,42.2937 114.188,42.4604 115.5,41.5C 116.493,36.8804 116.827,32.2137 116.5,27.5 Z"/></g>
<g><path style="opacity:1" fill="#fabd17" d="M 130.5,32.5 C 131.922,32.7496 132.922,33.583 133.5,35C 131.789,36.1332 131.289,37.6332 132,39.5C 133.441,38.7402 134.941,38.0736 136.5,37.5C 139.415,40.3188 142.748,40.9855 146.5,39.5C 147.973,34.7631 149.306,34.5965 150.5,39C 145.32,41.7493 145.486,43.2493 151,43.5C 153.952,41.8071 154.118,39.9738 151.5,38C 152.672,37.6466 153.838,37.8132 155,38.5C 155.759,37.3542 156.426,36.3542 157,35.5C 157.95,36.0223 158.784,36.689 159.5,37.5C 160.609,36.4104 161.609,36.4104 162.5,37.5C 163.859,39.306 163.525,40.806 161.5,42C 163.891,42.2868 166.224,42.7868 168.5,43.5C 171.11,41.8127 170.777,40.4793 167.5,39.5C 169.655,39.14 171.655,39.14 173.5,39.5C 173.5,46.8333 173.5,54.1667 173.5,61.5C 171.738,61.6427 170.071,61.3094 168.5,60.5C 167.459,62.9913 166.626,62.9913 166,60.5C 164.615,61.5505 163.615,62.8839 163,64.5C 162.289,62.6332 162.789,61.1332 164.5,60C 162.359,59.1163 160.693,59.6163 159.5,61.5C 161.674,63.2395 161.007,64.2395 157.5,64.5C 156.833,64.3333 156.167,64.1667 155.5,64C 156.624,63.7508 157.624,63.2508 158.5,62.5C 157.726,61.2888 156.893,61.2888 156,62.5C 156.148,61.175 155.982,60.0084 155.5,59C 156.744,58.5439 157.577,59.0439 158,60.5C 159.724,58.5023 159.057,57.5023 156,57.5C 153.759,57.6801 153.259,58.5135 154.5,60C 152.741,60.9804 151.074,61.647 149.5,62C 151.158,62.7253 151.658,63.892 151,65.5C 149.556,63.8446 147.722,63.178 145.5,63.5C 145.671,60.2027 145.005,59.8694 143.5,62.5C 143.628,60.8708 142.628,59.5375 140.5,58.5C 139.522,58.9767 138.689,59.6433 138,60.5C 137.598,59.1279 137.098,57.7946 136.5,56.5C 136.833,56.1667 137.167,55.8333 137.5,55.5C 138.216,56.311 139.05,56.9777 140,57.5C 141.416,56.4267 142.75,56.4267 144,57.5C 144.49,56.2068 144.657,54.8734 144.5,53.5C 141.402,53.5875 141.068,53.0875 143.5,52C 142.773,50.6012 142.273,49.1012 142,47.5C 140.083,49.7485 138.917,52.0818 138.5,54.5C 137.904,53.2839 137.737,51.9506 138,50.5C 137.333,51.8333 136.667,51.8333 136,50.5C 135.383,51.4491 135.549,52.2825 136.5,53C 135.529,54.2036 134.529,54.7036 133.5,54.5C 136.06,56.617 136.56,58.9503 135,61.5C 134.781,60.062 134.281,58.7287 133.5,57.5C 133.089,58.2624 132.923,59.2624 133,60.5C 132.329,59.7476 131.496,59.4142 130.5,59.5C 130.5,50.5 130.5,41.5 130.5,32.5 Z"/></g>
<g><path style="opacity:0.725" fill="#f3cc64" d="M 173.5,22.5 C 174.495,35.3226 174.829,48.3226 174.5,61.5C 174.598,63.5529 173.931,65.2196 172.5,66.5C 172.119,65.0689 171.119,64.2355 169.5,64C 171.437,63.8784 172.77,63.045 173.5,61.5C 173.5,54.1667 173.5,46.8333 173.5,39.5C 173.5,33.8333 173.5,28.1667 173.5,22.5 Z"/></g>
<g><path style="opacity:0.305" fill="#d9c1b7" d="M 117.5,30.5 C 117.833,30.5 118.167,30.5 118.5,30.5C 119.787,43.9736 119.787,57.3069 118.5,70.5C 118.815,66.6286 118.482,62.9619 117.5,59.5C 117.5,49.8333 117.5,40.1667 117.5,30.5 Z"/></g>
<g><path style="opacity:1" fill="#612518" d="M 55.5,60.5 C 55.1805,65.3633 55.5139,70.03 56.5,74.5C 57.9131,79.63 58.9131,84.9633 59.5,90.5C 58.5416,90.0472 57.7083,89.3805 57,88.5C 56.9683,84.0978 55.135,80.7644 51.5,78.5C 49.7426,70.9846 49.076,63.3179 49.5,55.5C 49.5865,51.1434 49.9198,46.81 50.5,42.5C 51.29,41.3915 51.79,40.0581 52,38.5C 55.0976,45.4814 56.2643,52.8147 55.5,60.5 Z"/></g>
<g><path style="opacity:0.49" fill="#b78779" d="M 57.5,55.5 C 56.8096,61.8097 56.4763,68.143 56.5,74.5C 55.5139,70.03 55.1805,65.3633 55.5,60.5C 56.1667,58.8333 56.8333,57.1667 57.5,55.5 Z"/></g>
<g><path style="opacity:1" fill="#f7c252" d="M 172.5,66.5 C 171.588,68.5952 170.421,70.5952 169,72.5C 168.5,79.1583 168.334,85.825 168.5,92.5C 168.821,94.0481 169.821,94.7148 171.5,94.5C 170.432,95.4345 169.099,95.7678 167.5,95.5C 167.5,91.1667 167.5,86.8333 167.5,82.5C 167.665,79.1501 167.498,75.8168 167,72.5C 166.535,71.0692 165.701,69.9025 164.5,69C 168.148,68.89 170.815,68.0566 172.5,66.5 Z"/></g>
<g><path style="opacity:1" fill="#bea996" d="M 49.5,55.5 C 49.076,63.3179 49.7426,70.9846 51.5,78.5C 53.1668,90.5011 54.8335,102.501 56.5,114.5C 55.8333,113.5 55.1667,112.5 54.5,111.5C 54.2833,107.295 53.6167,103.295 52.5,99.5C 52.1584,94.4516 51.4918,89.4516 50.5,84.5C 49.74,79.1798 49.0733,73.8465 48.5,68.5C 48.1818,63.9677 48.5151,59.6344 49.5,55.5 Z"/></g>
<g><path style="opacity:1" fill="#f9b619" d="M 173.5,61.5 C 172.77,63.045 171.437,63.8784 169.5,64C 171.119,64.2355 172.119,65.0689 172.5,66.5C 170.815,68.0566 168.148,68.89 164.5,69C 165.701,69.9025 166.535,71.0692 167,72.5C 167.498,75.8168 167.665,79.1501 167.5,82.5C 166.761,82.369 166.094,82.5357 165.5,83C 166.517,84.0495 166.684,85.2161 166,86.5C 165.632,85.09 164.799,84.09 163.5,83.5C 162.304,83.8457 162.304,84.3457 163.5,85C 161.5,85.6667 159.5,85.6667 157.5,85C 159.271,84.4646 159.604,83.6313 158.5,82.5C 156.566,82.9005 155.066,83.9005 154,85.5C 153.517,84.552 153.351,83.552 153.5,82.5C 151.876,82.3601 150.71,83.0267 150,84.5C 149.035,82.7397 147.868,82.4063 146.5,83.5C 147.025,84.1924 147.692,84.6924 148.5,85C 144.499,85.9614 140.832,85.2947 137.5,83C 137.36,81.7361 137.36,80.5695 137.5,79.5C 135.894,81.5119 134.727,83.8453 134,86.5C 133.25,85.8742 132.416,85.3742 131.5,85C 132.022,84.4387 132.355,83.772 132.5,83C 130.606,75.333 129.94,67.4997 130.5,59.5C 131.496,59.4142 132.329,59.7476 133,60.5C 132.923,59.2624 133.089,58.2624 133.5,57.5C 134.281,58.7287 134.781,60.062 135,61.5C 136.56,58.9503 136.06,56.617 133.5,54.5C 134.529,54.7036 135.529,54.2036 136.5,53C 135.549,52.2825 135.383,51.4491 136,50.5C 136.667,51.8333 137.333,51.8333 138,50.5C 137.737,51.9506 137.904,53.2839 138.5,54.5C 138.917,52.0818 140.083,49.7485 142,47.5C 142.273,49.1012 142.773,50.6012 143.5,52C 141.068,53.0875 141.402,53.5875 144.5,53.5C 144.657,54.8734 144.49,56.2068 144,57.5C 142.75,56.4267 141.416,56.4267 140,57.5C 139.05,56.9777 138.216,56.311 137.5,55.5C 137.167,55.8333 136.833,56.1667 136.5,56.5C 137.098,57.7946 137.598,59.1279 138,60.5C 138.689,59.6433 139.522,58.9767 140.5,58.5C 142.628,59.5375 143.628,60.8708 143.5,62.5C 145.005,59.8694 145.671,60.2027 145.5,63.5C 147.722,63.178 149.556,63.8446 151,65.5C 151.658,63.892 151.158,62.7253 149.5,62C 151.074,61.647 152.741,60.9804 154.5,60C 153.259,58.5135 153.759,57.6801 156,57.5C 159.057,57.5023 159.724,58.5023 158,60.5C 157.577,59.0439 156.744,58.5439 155.5,59C 155.982,60.0084 156.148,61.175 156,62.5C 156.893,61.2888 157.726,61.2888 158.5,62.5C 157.624,63.2508 156.624,63.7508 155.5,64C 156.167,64.1667 156.833,64.3333 157.5,64.5C 161.007,64.2395 161.674,63.2395 159.5,61.5C 160.693,59.6163 162.359,59.1163 164.5,60C 162.789,61.1332 162.289,62.6332 163,64.5C 163.615,62.8839 164.615,61.5505 166,60.5C 166.626,62.9913 167.459,62.9913 168.5,60.5C 170.071,61.3094 171.738,61.6427 173.5,61.5 Z"/></g>
<g><path style="opacity:1" fill="#f9b720" d="M 244.5,49.5 C 244.451,60.0645 244.118,70.3979 243.5,80.5C 242.566,81.5676 242.232,82.901 242.5,84.5C 234.725,84.4205 234.058,82.9205 240.5,80C 238.074,80.0479 235.741,79.8812 233.5,79.5C 232.738,80.6283 232.071,81.7949 231.5,83C 232.624,83.2492 233.624,83.7492 234.5,84.5C 234,84.8333 233.5,85.1667 233,85.5C 231.85,84.5761 230.85,84.5761 230,85.5C 228.463,82.1936 226.296,81.6936 223.5,84C 223.833,84.3333 224.167,84.6667 224.5,85C 222.167,85.6667 219.833,85.6667 217.5,85C 218.624,84.7508 219.624,84.2508 220.5,83.5C 218.295,82.6258 216.462,83.2924 215,85.5C 213.999,82.7844 212.332,82.1178 210,83.5C 208.5,83 207,82.5 205.5,82C 205.833,81.6667 206.167,81.3333 206.5,81C 204.667,80.5 203.5,79.3333 203,77.5C 202.691,78.7659 202.191,79.9326 201.5,81C 203.715,83.257 206.048,84.5903 208.5,85C 206.005,85.1575 203.672,85.3241 201.5,85.5C 200.481,84.3128 199.314,83.3128 198,82.5C 197.821,86.0252 197.321,89.3586 196.5,92.5C 196.5,80.5 196.5,68.5 196.5,56.5C 196.833,56.5 197.167,56.5 197.5,56.5C 197.828,59.1719 199.328,60.8385 202,61.5C 204.934,58.5803 206.434,59.247 206.5,63.5C 210.449,63.6932 210.449,64.1932 206.5,65C 209.587,66.993 211.754,66.493 213,63.5C 213.914,64.6537 214.747,64.487 215.5,63C 213.744,62.7978 212.078,62.2978 210.5,61.5C 215.035,59.8219 219.702,58.6552 224.5,58C 223.975,57.3076 223.308,56.8076 222.5,56.5C 221.549,57.3256 220.549,57.4922 219.5,57C 221.307,56.0723 222.974,54.9056 224.5,53.5C 225.711,54.2739 225.711,55.1072 224.5,56C 227.053,56.8513 229.386,56.518 231.5,55C 230.551,54.3828 229.718,54.5494 229,55.5C 228.568,54.3999 229.068,53.7332 230.5,53.5C 231.672,53.9186 232.672,54.5853 233.5,55.5C 234.251,54.624 234.751,53.624 235,52.5C 235.333,53.1667 235.667,53.8333 236,54.5C 235.954,52.6874 236.12,51.0207 236.5,49.5C 237.602,51.8894 239.269,53.7227 241.5,55C 240.549,55.7175 240.383,56.5509 241,57.5C 242.892,55.1133 244.058,52.4466 244.5,49.5 Z"/></g>
<g><path style="opacity:1" fill="#f9b822" d="M 47.5,56.5 C 47.1832,60.7016 47.5166,64.7016 48.5,68.5C 49.0733,73.8465 49.74,79.1798 50.5,84.5C 49.7784,84.0825 49.2784,83.4158 49,82.5C 48.6667,82.8333 48.3333,83.1667 48,83.5C 48.0773,82.2624 47.9106,81.2624 47.5,80.5C 46.147,81.6853 44.9803,83.0186 44,84.5C 42.1598,83.1669 41.6598,83.3335 42.5,85C 40.1667,85.6667 37.8333,85.6667 35.5,85C 36.624,84.7508 37.624,84.2508 38.5,83.5C 36.2362,82.6964 34.2362,83.3631 32.5,85.5C 31.8333,84.5 31.1667,83.5 30.5,82.5C 29.4096,83.727 28.0762,84.5604 26.5,85C 24.0049,85.1575 21.6716,85.3241 19.5,85.5C 18.646,84.4783 17.646,83.6449 16.5,83C 19.0443,81.9015 19.0443,80.7348 16.5,79.5C 14.0958,80.0079 13.4291,81.1745 14.5,83C 13.324,84.9142 12.324,84.7476 11.5,82.5C 10.5481,84.0453 10.2148,85.712 10.5,87.5C 8.5265,77.7211 7.19317,67.7211 6.5,57.5C 7.48224,56.8592 8.48224,56.1925 9.5,55.5C 10.5934,57.7697 12.0934,58.103 14,56.5C 16.3894,59.6051 19.0561,61.6051 22,62.5C 22.3076,61.6919 22.8076,61.0253 23.5,60.5C 25.9408,60.5784 28.2741,60.9117 30.5,61.5C 31.5,61 32.5,60.5 33.5,60C 29.7279,59.594 26.0613,58.7607 22.5,57.5C 22.1654,55.9974 22.1654,54.664 22.5,53.5C 23.1924,54.0253 23.6924,54.6919 24,55.5C 25.7261,54.4238 27.5594,54.2571 29.5,55C 31.7298,58.1385 34.8965,58.3052 39,55.5C 39.4561,56.7441 38.9561,57.5774 37.5,58C 39.1667,58.6667 40.8333,58.6667 42.5,58C 40.688,56.3731 40.5213,54.8731 42,53.5C 43.8261,54.0104 43.9928,54.8438 42.5,56C 44.1341,56.4935 45.8008,56.6602 47.5,56.5 Z"/></g>
<g><path style="opacity:1" fill="#4b170f" d="M 194.5,91.5 C 192.447,91.5979 190.78,90.9313 189.5,89.5C 189.801,83.4888 190.301,77.4888 191,71.5C 191.923,70.2412 192.757,68.9079 193.5,67.5C 194.498,75.4723 194.831,83.4723 194.5,91.5 Z"/></g>
<g><path style="opacity:1" fill="#f9b61a" d="M 72.5,57.5 C 73.29,58.6085 73.79,59.9419 74,61.5C 74.6667,60.8333 75.3333,60.1667 76,59.5C 77.9291,61.6847 77.4291,63.3514 74.5,64.5C 74.8333,64.8333 75.1667,65.1667 75.5,65.5C 77.5346,64.4035 78.8679,62.7368 79.5,60.5C 80.4255,61.6405 81.2588,61.6405 82,60.5C 82.6259,62.9913 83.4593,62.9913 84.5,60.5C 84.2385,62.1322 85.2385,63.2988 87.5,64C 86.1011,64.5946 84.7678,64.4279 83.5,63.5C 82.3044,63.8457 82.3044,64.3457 83.5,65C 86.4525,65.8925 89.1192,65.3925 91.5,63.5C 92.2508,64.376 92.7508,65.376 93,66.5C 93.227,63.9405 94.5603,62.2738 97,61.5C 97.4561,62.7441 96.9561,63.5774 95.5,64C 96.7014,64.9025 97.5348,66.0692 98,67.5C 98.414,67.0426 98.914,66.7093 99.5,66.5C 100.874,67.7113 102.374,68.7113 104,69.5C 104.388,67.9294 105.888,66.9294 108.5,66.5C 109.167,67.5 109.833,68.5 110.5,69.5C 112.43,67.826 114.43,67.4927 116.5,68.5C 116.149,72.6836 115.482,76.6836 114.5,80.5C 113.153,79.9717 111.819,79.805 110.5,80C 110.833,80.3333 111.167,80.6667 111.5,81C 110.809,82.0674 110.309,83.2341 110,84.5C 109.667,83.8333 109.333,83.1667 109,82.5C 107.989,83.3366 106.822,83.67 105.5,83.5C 105.587,86.5983 105.087,86.9316 104,84.5C 101.599,85.6023 99.0991,85.769 96.5,85C 97.624,84.7508 98.624,84.2508 99.5,83.5C 97.0603,82.3678 95.0603,83.0345 93.5,85.5C 92.8333,84.5 92.1667,83.5 91.5,82.5C 91.0024,83.6034 90.6691,84.6034 90.5,85.5C 89.084,83.8608 87.4174,83.0275 85.5,83C 86.5,84 87.5,85 88.5,86C 87.2341,86.3095 86.0674,86.8095 85,87.5C 83.9698,85.2236 82.4698,84.5569 80.5,85.5C 78.4283,82.2661 76.095,81.9328 73.5,84.5C 71.7298,81.8066 71.0632,78.8066 71.5,75.5C 71.5,75.1667 71.5,74.8333 71.5,74.5C 72.4889,69.0247 72.8222,63.358 72.5,57.5 Z"/></g>
<g><path style="opacity:1" fill="#ac775f" d="M 117.5,59.5 C 118.482,62.9619 118.815,66.6286 118.5,70.5C 119.251,77.715 117.918,84.3817 114.5,90.5C 115.258,87.6481 115.258,84.9815 114.5,82.5C 114.5,81.8333 114.5,81.1667 114.5,80.5C 115.482,76.6836 116.149,72.6836 116.5,68.5C 116.963,65.5176 117.296,62.5176 117.5,59.5 Z"/></g>
<g><path style="opacity:1" fill="#f8b123" d="M 50.5,84.5 C 51.4918,89.4516 52.1584,94.4516 52.5,99.5C 52.5,101.167 52.5,102.833 52.5,104.5C 50.2776,104.822 48.4443,104.155 47,102.5C 46.2249,104.223 44.8916,105.223 43,105.5C 41.902,104.616 41.402,103.616 41.5,102.5C 39.997,103.59 39.6637,104.757 40.5,106C 38.2462,107.15 35.9129,107.484 33.5,107C 34.8333,106.333 36.1667,105.667 37.5,105C 35.236,104.764 33.0693,104.264 31,103.5C 31.0464,105.313 30.8797,106.979 30.5,108.5C 31.0253,109.192 31.6919,109.692 32.5,110C 29.1317,110.051 25.7983,109.551 22.5,108.5C 22.5105,109.441 22.0105,110.108 21,110.5C 19.0786,108.997 16.912,108.331 14.5,108.5C 14.5,110.833 14.5,113.167 14.5,115.5C 12.5258,106.392 11.1925,97.0587 10.5,87.5C 10.2148,85.712 10.5481,84.0453 11.5,82.5C 12.324,84.7476 13.324,84.9142 14.5,83C 13.4291,81.1745 14.0958,80.0079 16.5,79.5C 19.0443,80.7348 19.0443,81.9015 16.5,83C 17.646,83.6449 18.646,84.4783 19.5,85.5C 21.6716,85.3241 24.0049,85.1575 26.5,85C 28.0762,84.5604 29.4096,83.727 30.5,82.5C 31.1667,83.5 31.8333,84.5 32.5,85.5C 34.2362,83.3631 36.2362,82.6964 38.5,83.5C 37.624,84.2508 36.624,84.7508 35.5,85C 37.8333,85.6667 40.1667,85.6667 42.5,85C 41.6598,83.3335 42.1598,83.1669 44,84.5C 44.9803,83.0186 46.147,81.6853 47.5,80.5C 47.9106,81.2624 48.0773,82.2624 48,83.5C 48.3333,83.1667 48.6667,82.8333 49,82.5C 49.2784,83.4158 49.7784,84.0825 50.5,84.5 Z"/></g>
<g><path style="opacity:1" fill="#f8b126" d="M 71.5,75.5 C 71.0632,78.8066 71.7298,81.8066 73.5,84.5C 76.095,81.9328 78.4283,82.2661 80.5,85.5C 82.4698,84.5569 83.9698,85.2236 85,87.5C 86.0674,86.8095 87.2341,86.3095 88.5,86C 87.5,85 86.5,84 85.5,83C 87.4174,83.0275 89.084,83.8608 90.5,85.5C 90.6691,84.6034 91.0024,83.6034 91.5,82.5C 92.1667,83.5 92.8333,84.5 93.5,85.5C 95.0603,83.0345 97.0603,82.3678 99.5,83.5C 98.624,84.2508 97.624,84.7508 96.5,85C 99.0991,85.769 101.599,85.6023 104,84.5C 105.087,86.9316 105.587,86.5983 105.5,83.5C 106.822,83.67 107.989,83.3366 109,82.5C 109.333,83.1667 109.667,83.8333 110,84.5C 110.309,83.2341 110.809,82.0674 111.5,81C 111.167,80.6667 110.833,80.3333 110.5,80C 111.819,79.805 113.153,79.9717 114.5,80.5C 114.5,81.1667 114.5,81.8333 114.5,82.5C 112.685,86.6228 110.685,90.6228 108.5,94.5C 108.101,99.9737 108.101,105.64 108.5,111.5C 107.876,109.166 107.043,106.833 106,104.5C 102.596,105.727 99.0956,106.727 95.5,107.5C 94.263,107.444 93.263,106.944 92.5,106C 93.7376,106.077 94.7376,105.911 95.5,105.5C 92.9807,103.495 90.1474,102.162 87,101.5C 86.8333,101.833 86.6667,102.167 86.5,102.5C 87.9905,103.244 89.4905,103.91 91,104.5C 91.0659,108.81 90.3993,109.144 89,105.5C 88.6667,106.167 88.3333,106.833 88,107.5C 87.7508,106.376 87.2508,105.376 86.5,104.5C 85.5,105.833 84.5,105.833 83.5,104.5C 80.7777,106.956 80.9443,107.623 84,106.5C 85.1711,107.893 86.6711,108.727 88.5,109C 86.765,109.651 85.0983,109.485 83.5,108.5C 81.7028,111.096 80.3695,110.763 79.5,107.5C 81.124,106.131 81.624,104.464 81,102.5C 79.1044,105.238 77.771,108.238 77,111.5C 75.548,110.093 75.7147,108.593 77.5,107C 76.5838,106.626 75.7504,106.126 75,105.5C 74.2904,106.973 73.1238,107.64 71.5,107.5C 71.4125,104.402 71.9125,104.068 73,106.5C 73.7724,105.151 74.9391,104.318 76.5,104C 74.6987,102.613 74.0321,101.113 74.5,99.5C 72.997,100.59 72.6637,101.757 73.5,103C 72.552,103.483 71.552,103.649 70.5,103.5C 70.5,109.5 70.5,115.5 70.5,121.5C 69.1567,106.14 69.49,90.8066 71.5,75.5 Z"/></g>
<g><path style="opacity:1" fill="#f8b120" d="M 129.5,21.5 C 129.833,21.5 130.167,21.5 130.5,21.5C 130.5,25.1667 130.5,28.8333 130.5,32.5C 130.5,41.5 130.5,50.5 130.5,59.5C 129.94,67.4997 130.606,75.333 132.5,83C 132.355,83.772 132.022,84.4387 131.5,85C 132.416,85.3742 133.25,85.8742 134,86.5C 134.727,83.8453 135.894,81.5119 137.5,79.5C 137.36,80.5695 137.36,81.7361 137.5,83C 140.832,85.2947 144.499,85.9614 148.5,85C 147.692,84.6924 147.025,84.1924 146.5,83.5C 147.868,82.4063 149.035,82.7397 150,84.5C 150.71,83.0267 151.876,82.3601 153.5,82.5C 153.351,83.552 153.517,84.552 154,85.5C 155.066,83.9005 156.566,82.9005 158.5,82.5C 159.604,83.6313 159.271,84.4646 157.5,85C 159.5,85.6667 161.5,85.6667 163.5,85C 162.304,84.3457 162.304,83.8457 163.5,83.5C 164.799,84.09 165.632,85.09 166,86.5C 166.684,85.2161 166.517,84.0495 165.5,83C 166.094,82.5357 166.761,82.369 167.5,82.5C 167.5,86.8333 167.5,91.1667 167.5,95.5C 169.099,95.7678 170.432,95.4345 171.5,94.5C 175.923,93.455 180.256,92.1216 184.5,90.5C 187.63,92.0588 190.964,93.0588 194.5,93.5C 195.623,94.7574 196.289,94.4241 196.5,92.5C 197.321,89.3586 197.821,86.0252 198,82.5C 199.314,83.3128 200.481,84.3128 201.5,85.5C 203.672,85.3241 206.005,85.1575 208.5,85C 206.048,84.5903 203.715,83.257 201.5,81C 202.191,79.9326 202.691,78.7659 203,77.5C 203.5,79.3333 204.667,80.5 206.5,81C 206.167,81.3333 205.833,81.6667 205.5,82C 207,82.5 208.5,83 210,83.5C 212.332,82.1178 213.999,82.7844 215,85.5C 216.462,83.2924 218.295,82.6258 220.5,83.5C 219.624,84.2508 218.624,84.7508 217.5,85C 219.833,85.6667 222.167,85.6667 224.5,85C 224.167,84.6667 223.833,84.3333 223.5,84C 226.296,81.6936 228.463,82.1936 230,85.5C 230.85,84.5761 231.85,84.5761 233,85.5C 233.5,85.1667 234,84.8333 234.5,84.5C 233.624,83.7492 232.624,83.2492 231.5,83C 232.071,81.7949 232.738,80.6283 233.5,79.5C 235.741,79.8812 238.074,80.0479 240.5,80C 234.058,82.9205 234.725,84.4205 242.5,84.5C 242.786,90.2586 242.452,95.9252 241.5,101.5C 239.857,101.52 238.524,100.853 237.5,99.5C 236.186,100.313 235.019,101.313 234,102.5C 233.667,101.833 233.333,101.167 233,100.5C 231.807,101.978 231.307,103.312 231.5,104.5C 230.742,103.189 229.742,102.689 228.5,103C 229.167,105 230.5,106.333 232.5,107C 230.269,107.622 228.435,108.789 227,110.5C 226.161,109.376 224.994,108.709 223.5,108.5C 221.177,109.376 218.843,109.876 216.5,110C 219.001,108.582 218.668,107.582 215.5,107C 213.367,102.481 212.534,102.648 213,107.5C 212.667,107.833 212.333,108.167 212,108.5C 211.667,107.167 211.333,105.833 211,104.5C 209.796,105.471 209.296,106.471 209.5,107.5C 208.453,106.078 208.453,104.578 209.5,103C 207.977,101.146 206.144,99.6461 204,98.5C 203.493,99.9961 203.993,101.163 205.5,102C 204.261,106.665 203.428,106.498 203,101.5C 201.812,102.563 201.312,103.897 201.5,105.5C 200.178,105.33 199.011,105.663 198,106.5C 197.5,106 197,105.5 196.5,105C 199.4,100.682 198.067,98.5155 192.5,98.5C 190.096,101.247 190.43,103.747 193.5,106C 192.08,107.456 190.747,108.956 189.5,110.5C 189.167,110.167 188.833,109.833 188.5,109.5C 191.028,108.184 191.028,107.017 188.5,106C 189.554,104.612 189.72,103.112 189,101.5C 188.735,103.651 187.735,105.318 186,106.5C 184.437,105.898 184.604,105.065 186.5,104C 184.837,103.735 183.337,104.235 182,105.5C 180.812,104.437 180.312,103.103 180.5,101.5C 179.448,101.351 178.448,101.517 177.5,102C 178.833,102.667 178.833,103.333 177.5,104C 178.833,105 180.167,106 181.5,107C 180.833,107.333 180.167,107.667 179.5,108C 180.624,108.249 181.624,108.749 182.5,109.5C 182.333,109.833 182.167,110.167 182,110.5C 180.933,109.809 179.766,109.309 178.5,109C 177.624,107.414 176.624,105.914 175.5,104.5C 174.784,105.311 173.95,105.978 173,106.5C 171.346,105.347 169.846,104.013 168.5,102.5C 168.167,102.667 167.833,102.833 167.5,103C 168.758,104.741 169.758,106.574 170.5,108.5C 168.224,108.244 167.057,106.91 167,104.5C 165.887,105.76 165.72,106.927 166.5,108C 164.567,108.251 162.734,108.751 161,109.5C 160.833,109.167 160.667,108.833 160.5,108.5C 161.376,107.749 162.376,107.249 163.5,107C 160.486,106.872 157.486,106.872 154.5,107C 154.034,104.877 152.867,103.377 151,102.5C 150.5,102.667 150,102.833 149.5,103C 152.67,104.17 153.17,106.003 151,108.5C 150.667,107.167 150.333,105.833 150,104.5C 149.692,105.308 149.192,105.975 148.5,106.5C 147.304,106.154 147.304,105.654 148.5,105C 147.065,105.311 145.732,105.145 144.5,104.5C 143.5,105.833 142.5,107.167 141.5,108.5C 137.5,107.5 137.5,106.5 141.5,105.5C 142.583,104.635 142.749,103.635 142,102.5C 139.152,105.685 135.985,107.352 132.5,107.5C 132.413,104.402 132.913,104.068 134,106.5C 134.333,105.5 134.667,104.5 135,103.5C 135.718,104.451 136.551,104.617 137.5,104C 134.345,103.019 134.012,101.685 136.5,100C 135.552,99.5172 134.552,99.3505 133.5,99.5C 133.843,101.483 133.176,102.817 131.5,103.5C 131.5,102.833 131.167,102.5 130.5,102.5C 129.509,75.5741 129.176,48.5741 129.5,21.5 Z"/></g>
<g><path style="opacity:1" fill="#e2cea6" d="M 195.5,56.5 C 195.833,56.5 196.167,56.5 196.5,56.5C 196.5,68.5 196.5,80.5 196.5,92.5C 196.289,94.4241 195.623,94.7574 194.5,93.5C 195.338,93.1583 195.672,92.4916 195.5,91.5C 195.5,79.8333 195.5,68.1667 195.5,56.5 Z"/></g>
<g><path style="opacity:1" fill="#532219" d="M 51.5,78.5 C 55.135,80.7644 56.9683,84.0978 57,88.5C 57.7083,89.3805 58.5416,90.0472 59.5,90.5C 60.4996,97.1641 61.4996,103.831 62.5,110.5C 61.7784,110.082 61.2784,109.416 61,108.5C 60.6667,110.167 60.3333,111.833 60,113.5C 58.9887,114.337 57.8221,114.67 56.5,114.5C 54.8335,102.501 53.1668,90.5011 51.5,78.5 Z"/></g>
<g><path style="opacity:0.426" fill="#e3dcca" d="M 188.5,81.5 C 188.194,84.3854 188.527,87.0521 189.5,89.5C 190.78,90.9313 192.447,91.5979 194.5,91.5C 194.833,91.5 195.167,91.5 195.5,91.5C 195.672,92.4916 195.338,93.1583 194.5,93.5C 190.964,93.0588 187.63,92.0588 184.5,90.5C 180.256,92.1216 175.923,93.455 171.5,94.5C 169.821,94.7148 168.821,94.0481 168.5,92.5C 173.606,91.5761 178.606,90.2428 183.5,88.5C 184.772,88.5698 185.938,88.9032 187,89.5C 187.183,86.6353 187.683,83.9686 188.5,81.5 Z"/></g>
<g><path style="opacity:0.478" fill="#e19a85" d="M 114.5,90.5 C 114.008,92.8185 113.008,94.8185 111.5,96.5C 111.461,93.911 112.461,91.911 114.5,90.5 Z"/></g>
<g><path style="opacity:1" fill="#f7aa1c" d="M 170.5,108.5 C 170.5,109.5 170.5,110.5 170.5,111.5C 169.167,111.5 167.833,111.5 166.5,111.5C 166.33,112.822 166.663,113.989 167.5,115C 166.584,115.374 165.75,115.874 165,116.5C 163.406,114.018 161.572,113.852 159.5,116C 161.891,117.309 161.891,118.309 159.5,119C 161.792,120.29 163.792,121.957 165.5,124C 165,124.167 164.5,124.333 164,124.5C 162.832,123.491 161.665,122.491 160.5,121.5C 159.646,122.522 158.646,123.355 157.5,124C 158.654,124.914 158.487,125.747 157,126.5C 154.159,120.093 153.326,120.093 154.5,126.5C 153.5,126.5 152.5,126.5 151.5,126.5C 150.115,125.386 148.615,124.386 147,123.5C 147.947,125.349 148.613,127.349 149,129.5C 147.372,128.903 145.705,129.237 144,130.5C 140.841,128.556 141.341,127.39 145.5,127C 141.745,124.286 139.745,125.119 139.5,129.5C 136.632,129.915 134.465,128.915 133,126.5C 131.957,128.833 131.124,131.166 130.5,133.5C 130.334,123.476 130.668,113.476 131.5,103.5C 133.176,102.817 133.843,101.483 133.5,99.5C 134.552,99.3505 135.552,99.5172 136.5,100C 134.012,101.685 134.345,103.019 137.5,104C 136.551,104.617 135.718,104.451 135,103.5C 134.667,104.5 134.333,105.5 134,106.5C 132.913,104.068 132.413,104.402 132.5,107.5C 135.985,107.352 139.152,105.685 142,102.5C 142.749,103.635 142.583,104.635 141.5,105.5C 137.5,106.5 137.5,107.5 141.5,108.5C 142.5,107.167 143.5,105.833 144.5,104.5C 145.732,105.145 147.065,105.311 148.5,105C 147.304,105.654 147.304,106.154 148.5,106.5C 149.192,105.975 149.692,105.308 150,104.5C 150.333,105.833 150.667,107.167 151,108.5C 153.17,106.003 152.67,104.17 149.5,103C 150,102.833 150.5,102.667 151,102.5C 152.867,103.377 154.034,104.877 154.5,107C 157.486,106.872 160.486,106.872 163.5,107C 162.376,107.249 161.376,107.749 160.5,108.5C 160.667,108.833 160.833,109.167 161,109.5C 162.734,108.751 164.567,108.251 166.5,108C 165.72,106.927 165.887,105.76 167,104.5C 167.057,106.91 168.224,108.244 170.5,108.5 Z"/></g>
<g><path style="opacity:1" fill="#f7a91b" d="M 241.5,101.5 C 241.5,109.833 241.5,118.167 241.5,126.5C 237.979,124.009 236.979,125.009 238.5,129.5C 236.865,128.185 235.199,128.185 233.5,129.5C 232.833,128.833 232.167,128.167 231.5,127.5C 230.646,128.522 229.646,129.355 228.5,130C 228.833,130.333 229.167,130.667 229.5,131C 227.102,131.374 224.769,131.374 222.5,131C 223.634,132.016 223.301,132.683 221.5,133C 223.901,133.805 223.734,134.638 221,135.5C 220.213,134.289 219.546,133.289 219,132.5C 217.765,133.615 216.598,133.615 215.5,132.5C 214.304,132.846 214.304,133.346 215.5,134C 208.699,136.64 207.866,135.473 213,130.5C 213.893,131.711 214.726,131.711 215.5,130.5C 213.009,129.459 213.009,128.626 215.5,128C 214.128,127.598 212.795,127.098 211.5,126.5C 210.685,128.276 209.518,128.943 208,128.5C 207.311,127.643 206.478,126.977 205.5,126.5C 205.628,128.129 204.628,129.462 202.5,130.5C 204.693,132.382 204.027,132.882 200.5,132C 201.167,130 201.833,128 202.5,126C 202.167,125.667 201.833,125.333 201.5,125C 203.246,124.529 204.913,123.862 206.5,123C 206.167,122.667 205.833,122.333 205.5,122C 211.175,121.536 211.508,120.869 206.5,120C 210.449,119.193 210.449,118.693 206.5,118.5C 206.649,117.448 206.483,116.448 206,115.5C 204.581,119.579 202.081,122.745 198.5,125C 200.774,126.355 200.774,127.855 198.5,129.5C 197.25,129.577 196.417,130.244 196,131.5C 195.152,127.983 193.152,125.316 190,123.5C 188.704,125.531 187.204,127.364 185.5,129C 186.416,129.374 187.25,129.874 188,130.5C 188.249,129.376 188.749,128.376 189.5,127.5C 189.833,127.667 190.167,127.833 190.5,128C 189.167,129.333 189.167,130.667 190.5,132C 187.161,132.557 184.661,131.39 183,128.5C 182.107,129.711 181.274,129.711 180.5,128.5C 181.376,127.749 182.376,127.249 183.5,127C 181.924,126.56 180.59,125.727 179.5,124.5C 178.253,126.006 178.253,127.506 179.5,129C 178.3,130.031 176.966,130.865 175.5,131.5C 173.521,129.776 171.021,127.776 168,125.5C 168.333,126.833 168.667,128.167 169,129.5C 167.951,128.483 166.784,128.316 165.5,129C 169.525,130.572 169.358,131.739 165,132.5C 162.485,128.704 159.485,128.038 156,130.5C 155.072,128.738 153.572,127.404 151.5,126.5C 152.5,126.5 153.5,126.5 154.5,126.5C 153.326,120.093 154.159,120.093 157,126.5C 158.487,125.747 158.654,124.914 157.5,124C 158.646,123.355 159.646,122.522 160.5,121.5C 161.665,122.491 162.832,123.491 164,124.5C 164.5,124.333 165,124.167 165.5,124C 163.792,121.957 161.792,120.29 159.5,119C 161.891,118.309 161.891,117.309 159.5,116C 161.572,113.852 163.406,114.018 165,116.5C 165.75,115.874 166.584,115.374 167.5,115C 166.663,113.989 166.33,112.822 166.5,111.5C 167.833,111.5 169.167,111.5 170.5,111.5C 170.5,110.5 170.5,109.5 170.5,108.5C 169.758,106.574 168.758,104.741 167.5,103C 167.833,102.833 168.167,102.667 168.5,102.5C 169.846,104.013 171.346,105.347 173,106.5C 173.95,105.978 174.784,105.311 175.5,104.5C 176.624,105.914 177.624,107.414 178.5,109C 179.766,109.309 180.933,109.809 182,110.5C 182.167,110.167 182.333,109.833 182.5,109.5C 181.624,108.749 180.624,108.249 179.5,108C 180.167,107.667 180.833,107.333 181.5,107C 180.167,106 178.833,105 177.5,104C 178.833,103.333 178.833,102.667 177.5,102C 178.448,101.517 179.448,101.351 180.5,101.5C 180.312,103.103 180.812,104.437 182,105.5C 183.337,104.235 184.837,103.735 186.5,104C 184.604,105.065 184.437,105.898 186,106.5C 187.735,105.318 188.735,103.651 189,101.5C 189.72,103.112 189.554,104.612 188.5,106C 191.028,107.017 191.028,108.184 188.5,109.5C 188.833,109.833 189.167,110.167 189.5,110.5C 190.747,108.956 192.08,107.456 193.5,106C 190.43,103.747 190.096,101.247 192.5,98.5C 198.067,98.5155 199.4,100.682 196.5,105C 197,105.5 197.5,106 198,106.5C 199.011,105.663 200.178,105.33 201.5,105.5C 201.312,103.897 201.812,102.563 203,101.5C 203.428,106.498 204.261,106.665 205.5,102C 203.993,101.163 203.493,99.9961 204,98.5C 206.144,99.6461 207.977,101.146 209.5,103C 208.453,104.578 208.453,106.078 209.5,107.5C 209.296,106.471 209.796,105.471 211,104.5C 211.333,105.833 211.667,107.167 212,108.5C 212.333,108.167 212.667,107.833 213,107.5C 212.534,102.648 213.367,102.481 215.5,107C 218.668,107.582 219.001,108.582 216.5,110C 218.843,109.876 221.177,109.376 223.5,108.5C 224.994,108.709 226.161,109.376 227,110.5C 228.435,108.789 230.269,107.622 232.5,107C 230.5,106.333 229.167,105 228.5,103C 229.742,102.689 230.742,103.189 231.5,104.5C 231.307,103.312 231.807,101.978 233,100.5C 233.333,101.167 233.667,101.833 234,102.5C 235.019,101.313 236.186,100.313 237.5,99.5C 238.524,100.853 239.857,101.52 241.5,101.5 Z"/></g>
<g><path style="opacity:1" fill="#f7aa20" d="M 52.5,99.5 C 53.6167,103.295 54.2833,107.295 54.5,111.5C 55.3825,120.467 55.7159,129.467 55.5,138.5C 54.6137,136.541 52.6137,135.041 49.5,134C 50.8768,132.027 52.0435,130.194 53,128.5C 51.6667,129.167 50.3333,129.833 49,130.5C 45.6113,128.776 42.1113,127.276 38.5,126C 38.0698,125.08 37.7365,124.247 37.5,123.5C 36.8333,124.5 36.1667,125.5 35.5,126.5C 35.1667,125.833 34.8333,125.167 34.5,124.5C 32.8087,126.256 30.8087,126.756 28.5,126C 31.9431,125.779 32.2764,124.779 29.5,123C 29.8333,122.667 30.1667,122.333 30.5,122C 28.6354,120.699 26.6354,120.365 24.5,121C 28.1862,122.199 27.8529,122.533 23.5,122C 22.8742,121.25 22.3742,120.416 22,119.5C 19.411,121.688 17.5777,124.354 16.5,127.5C 15.0109,123.764 14.3442,119.764 14.5,115.5C 14.5,113.167 14.5,110.833 14.5,108.5C 16.912,108.331 19.0786,108.997 21,110.5C 22.0105,110.108 22.5105,109.441 22.5,108.5C 25.7983,109.551 29.1317,110.051 32.5,110C 31.6919,109.692 31.0253,109.192 30.5,108.5C 30.8797,106.979 31.0464,105.313 31,103.5C 33.0693,104.264 35.236,104.764 37.5,105C 36.1667,105.667 34.8333,106.333 33.5,107C 35.9129,107.484 38.2462,107.15 40.5,106C 39.6637,104.757 39.997,103.59 41.5,102.5C 41.402,103.616 41.902,104.616 43,105.5C 44.8916,105.223 46.2249,104.223 47,102.5C 48.4443,104.155 50.2776,104.822 52.5,104.5C 52.5,102.833 52.5,101.167 52.5,99.5 Z"/></g>
<g><path style="opacity:0.745" fill="#f9d28c" d="M 243.5,80.5 C 243.839,96.0333 243.173,111.367 241.5,126.5C 241.5,118.167 241.5,109.833 241.5,101.5C 242.452,95.9252 242.786,90.2586 242.5,84.5C 242.232,82.901 242.566,81.5676 243.5,80.5 Z"/></g>
<g><path style="opacity:0.98" fill="#9f6754" d="M 114.5,82.5 C 115.258,84.9815 115.258,87.6481 114.5,90.5C 112.461,91.911 111.461,93.911 111.5,96.5C 111.517,106.06 111.35,115.726 111,125.5C 110.234,135.089 108.734,144.422 106.5,153.5C 105.549,152.081 105.216,150.415 105.5,148.5C 106.172,139.446 107.172,130.446 108.5,121.5C 109.696,112.652 109.696,103.652 108.5,94.5C 110.685,90.6228 112.685,86.6228 114.5,82.5 Z"/></g>
<g><path style="opacity:1" fill="#c9b299" d="M 108.5,94.5 C 109.696,103.652 109.696,112.652 108.5,121.5C 108.5,118.167 108.5,114.833 108.5,111.5C 108.101,105.64 108.101,99.9737 108.5,94.5 Z"/></g>
<g><path style="opacity:0.999" fill="#f8b95a" d="M 241.5,126.5 C 239.774,128.82 239.107,131.487 239.5,134.5C 238.549,133.081 238.216,131.415 238.5,129.5C 236.979,125.009 237.979,124.009 241.5,126.5 Z"/></g>
<g><path style="opacity:1" fill="#742f20" d="M 62.5,110.5 C 63.4421,119.113 63.7754,127.779 63.5,136.5C 63.5,137.833 63.5,139.167 63.5,140.5C 61.8714,142.858 60.7048,145.524 60,148.5C 59.2515,146.668 58.2515,145.001 57,143.5C 56.5002,133.839 56.3335,124.172 56.5,114.5C 57.8221,114.67 58.9887,114.337 60,113.5C 60.3333,111.833 60.6667,110.167 61,108.5C 61.2784,109.416 61.7784,110.082 62.5,110.5 Z"/></g>
<g><path style="opacity:1" fill="#f6a81d" d="M 108.5,111.5 C 108.5,114.833 108.5,118.167 108.5,121.5C 107.172,130.446 106.172,139.446 105.5,148.5C 105.167,148.5 104.833,148.5 104.5,148.5C 103.71,147.599 102.71,146.932 101.5,146.5C 101.082,145.778 100.416,145.278 99.5,145C 100.167,144.667 100.833,144.333 101.5,144C 99.8333,143.667 98.1667,143.333 96.5,143C 97.938,142.781 99.2713,142.281 100.5,141.5C 100.167,141.167 99.8333,140.833 99.5,140.5C 94.7965,142.2 93.9631,141.534 97,138.5C 97.6543,139.696 98.1543,139.696 98.5,138.5C 97.2713,137.719 95.938,137.219 94.5,137C 96.4552,136.047 98.1218,134.713 99.5,133C 97.0913,132.252 94.9246,131.085 93,129.5C 91.9895,129.892 91.4895,130.559 91.5,131.5C 90.914,131.291 90.414,130.957 90,130.5C 90.0773,131.738 89.9106,132.738 89.5,133.5C 86.6478,132.71 84.4811,131.044 83,128.5C 82.1072,129.711 81.2739,129.711 80.5,128.5C 82.0064,127.253 83.5064,127.253 85,128.5C 85.8996,127.23 87.0663,126.23 88.5,125.5C 86.4384,122.154 83.7718,121.654 80.5,124C 81.8989,124.595 83.2322,124.428 84.5,123.5C 85.521,124.002 85.6877,124.668 85,125.5C 83.3333,126.833 81.6667,126.833 80,125.5C 79.2261,127.939 77.7261,129.773 75.5,131C 76.8333,131.667 77.8333,132.667 78.5,134C 76.9559,134.29 75.6226,134.956 74.5,136C 75.1667,136.333 75.8333,136.667 76.5,137C 75.1667,137.667 75.1667,138.333 76.5,139C 75.0563,139.781 73.723,139.614 72.5,138.5C 70.1683,137.18 68.1683,135.513 66.5,133.5C 68.1271,131.37 69.9604,129.37 72,127.5C 72.7401,126.251 72.5735,125.251 71.5,124.5C 70.8902,123.609 70.5569,122.609 70.5,121.5C 70.5,115.5 70.5,109.5 70.5,103.5C 71.552,103.649 72.552,103.483 73.5,103C 72.6637,101.757 72.997,100.59 74.5,99.5C 74.0321,101.113 74.6987,102.613 76.5,104C 74.9391,104.318 73.7724,105.151 73,106.5C 71.9125,104.068 71.4125,104.402 71.5,107.5C 73.1238,107.64 74.2904,106.973 75,105.5C 75.7504,106.126 76.5838,106.626 77.5,107C 75.7147,108.593 75.548,110.093 77,111.5C 77.771,108.238 79.1044,105.238 81,102.5C 81.624,104.464 81.124,106.131 79.5,107.5C 80.3695,110.763 81.7028,111.096 83.5,108.5C 85.0983,109.485 86.765,109.651 88.5,109C 86.6711,108.727 85.1711,107.893 84,106.5C 80.9443,107.623 80.7777,106.956 83.5,104.5C 84.5,105.833 85.5,105.833 86.5,104.5C 87.2508,105.376 87.7508,106.376 88,107.5C 88.3333,106.833 88.6667,106.167 89,105.5C 90.3993,109.144 91.0659,108.81 91,104.5C 89.4905,103.91 87.9905,103.244 86.5,102.5C 86.6667,102.167 86.8333,101.833 87,101.5C 90.1474,102.162 92.9807,103.495 95.5,105.5C 94.7376,105.911 93.7376,106.077 92.5,106C 93.263,106.944 94.263,107.444 95.5,107.5C 99.0956,106.727 102.596,105.727 106,104.5C 107.043,106.833 107.876,109.166 108.5,111.5 Z"/></g>
<g><path style="opacity:0.4" fill="#d5bdac" d="M 130.5,102.5 C 131.167,102.5 131.5,102.833 131.5,103.5C 130.668,113.476 130.334,123.476 130.5,133.5C 130.065,136.157 129.065,138.491 127.5,140.5C 126.662,140.158 126.328,139.492 126.5,138.5C 126.709,137.078 127.209,135.745 128,134.5C 128.245,124.8 128.745,115.134 129.5,105.5C 130.404,104.791 130.737,103.791 130.5,102.5 Z"/></g>
<g><path style="opacity:1" fill="#f6a421" d="M 238.5,129.5 C 238.216,131.415 238.549,133.081 239.5,134.5C 239.12,136.698 239.787,138.365 241.5,139.5C 241.5,139.833 241.5,140.167 241.5,140.5C 241.5,144.167 241.5,147.833 241.5,151.5C 239.43,150.493 237.43,150.826 235.5,152.5C 231.614,151.412 231.614,150.579 235.5,150C 234.5,149.5 233.5,149 232.5,148.5C 231.784,150.482 230.617,152.149 229,153.5C 228.46,151.865 228.96,150.532 230.5,149.5C 229.975,148.808 229.308,148.308 228.5,148C 229.624,147.751 230.624,147.251 231.5,146.5C 231.154,145.304 230.654,145.304 230,146.5C 230.263,145.049 230.096,143.716 229.5,142.5C 228.756,143.991 228.09,145.491 227.5,147C 224.905,146.869 222.405,147.036 220,147.5C 219.174,145.595 218.007,145.261 216.5,146.5C 218.023,148.283 220.023,148.949 222.5,148.5C 222.351,149.552 222.517,150.552 223,151.5C 227.422,147.421 228.256,148.087 225.5,153.5C 223.926,154.631 222.259,154.798 220.5,154C 221.668,152.594 221.335,151.428 219.5,150.5C 216.192,148.931 213.025,147.265 210,145.5C 208.383,146.536 208.216,147.703 209.5,149C 208.128,149.402 206.795,149.902 205.5,150.5C 204.833,159.324 204.167,167.991 203.5,176.5C 203.829,163.989 203.495,151.655 202.5,139.5C 199.467,134.805 196.134,134.472 192.5,138.5C 192.167,138.5 191.833,138.5 191.5,138.5C 191.5,136.167 191.5,133.833 191.5,131.5C 193.787,131.724 195.953,132.391 198,133.5C 199.563,132.898 199.396,132.065 197.5,131C 198.056,130.617 198.389,130.117 198.5,129.5C 200.774,127.855 200.774,126.355 198.5,125C 202.081,122.745 204.581,119.579 206,115.5C 206.483,116.448 206.649,117.448 206.5,118.5C 210.449,118.693 210.449,119.193 206.5,120C 211.508,120.869 211.175,121.536 205.5,122C 205.833,122.333 206.167,122.667 206.5,123C 204.913,123.862 203.246,124.529 201.5,125C 201.833,125.333 202.167,125.667 202.5,126C 201.833,128 201.167,130 200.5,132C 204.027,132.882 204.693,132.382 202.5,130.5C 204.628,129.462 205.628,128.129 205.5,126.5C 206.478,126.977 207.311,127.643 208,128.5C 209.518,128.943 210.685,128.276 211.5,126.5C 212.795,127.098 214.128,127.598 215.5,128C 213.009,128.626 213.009,129.459 215.5,130.5C 214.726,131.711 213.893,131.711 213,130.5C 207.866,135.473 208.699,136.64 215.5,134C 214.304,133.346 214.304,132.846 215.5,132.5C 216.598,133.615 217.765,133.615 219,132.5C 219.546,133.289 220.213,134.289 221,135.5C 223.734,134.638 223.901,133.805 221.5,133C 223.301,132.683 223.634,132.016 222.5,131C 224.769,131.374 227.102,131.374 229.5,131C 229.167,130.667 228.833,130.333 228.5,130C 229.646,129.355 230.646,128.522 231.5,127.5C 232.167,128.167 232.833,128.833 233.5,129.5C 235.199,128.185 236.865,128.185 238.5,129.5 Z"/></g>
<g><path style="opacity:0.435" fill="#e7d0a5" d="M 71.5,124.5 C 72.5735,125.251 72.7401,126.251 72,127.5C 69.9604,129.37 68.1271,131.37 66.5,133.5C 66.1667,133.5 65.8333,133.5 65.5,133.5C 67.5,130.5 69.5,127.5 71.5,124.5 Z"/></g>
<g><path style="opacity:1" fill="#f6a41e" d="M 151.5,126.5 C 153.572,127.404 155.072,128.738 156,130.5C 159.485,128.038 162.485,128.704 165,132.5C 169.358,131.739 169.525,130.572 165.5,129C 166.784,128.316 167.951,128.483 169,129.5C 168.667,128.167 168.333,126.833 168,125.5C 171.021,127.776 173.521,129.776 175.5,131.5C 176.966,130.865 178.3,130.031 179.5,129C 178.253,127.506 178.253,126.006 179.5,124.5C 180.59,125.727 181.924,126.56 183.5,127C 182.376,127.249 181.376,127.749 180.5,128.5C 181.274,129.711 182.107,129.711 183,128.5C 184.661,131.39 187.161,132.557 190.5,132C 189.167,130.667 189.167,129.333 190.5,128C 190.167,127.833 189.833,127.667 189.5,127.5C 188.749,128.376 188.249,129.376 188,130.5C 187.25,129.874 186.416,129.374 185.5,129C 187.204,127.364 188.704,125.531 190,123.5C 193.152,125.316 195.152,127.983 196,131.5C 196.417,130.244 197.25,129.577 198.5,129.5C 198.389,130.117 198.056,130.617 197.5,131C 199.396,132.065 199.563,132.898 198,133.5C 195.953,132.391 193.787,131.724 191.5,131.5C 191.5,133.833 191.5,136.167 191.5,138.5C 191.5,138.833 191.5,139.167 191.5,139.5C 191.158,140.338 190.492,140.672 189.5,140.5C 184.833,140.5 180.167,140.5 175.5,140.5C 175.942,144.154 176.276,147.821 176.5,151.5C 175.211,152.501 173.878,152.334 172.5,151C 173.448,150.517 174.448,150.351 175.5,150.5C 175.5,149.167 175.5,147.833 175.5,146.5C 173.058,146.881 172.391,146.214 173.5,144.5C 173.023,143.069 172.357,141.736 171.5,140.5C 171.522,141.995 171.189,143.662 170.5,145.5C 168.557,146.362 166.224,146.862 163.5,147C 162.377,145.956 161.044,145.29 159.5,145C 160.167,144.667 160.833,144.333 161.5,144C 156.279,143.458 156.279,142.624 161.5,141.5C 159.523,140.812 157.523,141.145 155.5,142.5C 156.833,143.5 156.833,144.5 155.5,145.5C 156.376,146.251 157.376,146.751 158.5,147C 156.253,148.655 153.92,148.988 151.5,148C 153.026,149.887 155.026,150.887 157.5,151C 153.856,151.783 150.022,152.95 146,154.5C 144.743,154.15 144.409,153.483 145,152.5C 145.333,152.833 145.667,153.167 146,153.5C 146.833,151.333 148.333,149.833 150.5,149C 149.306,144.596 147.973,144.763 146.5,149.5C 144.016,150.861 141.683,150.694 139.5,149C 140.549,148.508 141.549,148.674 142.5,149.5C 142.109,148.282 142.776,147.448 144.5,147C 142.109,145.691 142.109,144.691 144.5,144C 143.128,143.598 141.795,143.098 140.5,142.5C 140.167,143 139.833,143.5 139.5,144C 140.627,145.057 141.127,146.223 141,147.5C 139.667,146.167 138.333,146.167 137,147.5C 136.085,146.672 135.419,145.672 135,144.5C 134.316,145.784 134.483,146.951 135.5,148C 133.567,148.783 132.067,148.283 131,146.5C 130.075,147.047 129.242,147.713 128.5,148.5C 130.297,149.695 131.297,151.362 131.5,153.5C 130.167,153.5 128.833,153.5 127.5,153.5C 127.5,149.167 127.5,144.833 127.5,140.5C 129.065,138.491 130.065,136.157 130.5,133.5C 131.124,131.166 131.957,128.833 133,126.5C 134.465,128.915 136.632,129.915 139.5,129.5C 139.745,125.119 141.745,124.286 145.5,127C 141.341,127.39 140.841,128.556 144,130.5C 145.705,129.237 147.372,128.903 149,129.5C 148.613,127.349 147.947,125.349 147,123.5C 148.615,124.386 150.115,125.386 151.5,126.5 Z"/></g>
<g><path style="opacity:1" fill="#f6a626" d="M 55.5,138.5 C 55.0319,142.936 56.0319,146.936 58.5,150.5C 55.5943,151.751 52.5943,152.251 49.5,152C 52.2281,151.16 53.8948,149.827 54.5,148C 54,147.5 53.5,147 53,146.5C 49.416,150.603 48.0826,150.269 49,145.5C 48.3333,146.167 47.6667,146.833 47,147.5C 44.8068,147.717 42.4734,147.384 40,146.5C 38.5,147 37,147.5 35.5,148C 37.2556,148.202 38.9223,148.702 40.5,149.5C 39.7579,150.287 38.9246,150.953 38,151.5C 36.179,149.713 34.0123,148.38 31.5,147.5C 30.1667,148.167 30.1667,148.833 31.5,149.5C 32.7946,150.098 34.1279,150.598 35.5,151C 32.2206,152.149 28.8873,152.982 25.5,153.5C 25.5608,150.95 26.8941,149.45 29.5,149C 28.7386,144.642 27.5719,144.475 26,148.5C 25.6667,148.167 25.3333,147.833 25,147.5C 24.5172,148.448 24.3505,149.448 24.5,150.5C 23.1667,150.5 21.8333,150.5 20.5,150.5C 20.5,155.5 20.5,160.5 20.5,165.5C 20.5,167.167 20.5,168.833 20.5,170.5C 20.5,172.833 20.5,175.167 20.5,177.5C 19.1667,168.167 19.1667,158.833 20.5,149.5C 21.9063,149.027 22.573,148.027 22.5,146.5C 22.3284,145.508 22.6618,144.842 23.5,144.5C 24.9063,144.027 25.573,143.027 25.5,141.5C 25.631,140.761 25.4643,140.094 25,139.5C 22.0372,137.539 19.3706,135.206 17,132.5C 16.5065,130.866 16.3398,129.199 16.5,127.5C 17.5777,124.354 19.411,121.688 22,119.5C 22.3742,120.416 22.8742,121.25 23.5,122C 27.8529,122.533 28.1862,122.199 24.5,121C 26.6354,120.365 28.6354,120.699 30.5,122C 30.1667,122.333 29.8333,122.667 29.5,123C 32.2764,124.779 31.9431,125.779 28.5,126C 30.8087,126.756 32.8087,126.256 34.5,124.5C 34.8333,125.167 35.1667,125.833 35.5,126.5C 36.1667,125.5 36.8333,124.5 37.5,123.5C 37.7365,124.247 38.0698,125.08 38.5,126C 42.1113,127.276 45.6113,128.776 49,130.5C 50.3333,129.833 51.6667,129.167 53,128.5C 52.0435,130.194 50.8768,132.027 49.5,134C 52.6137,135.041 54.6137,136.541 55.5,138.5 Z"/></g>
<g><path style="opacity:0.976" fill="#e1caa3" d="M 54.5,111.5 C 55.1667,112.5 55.8333,113.5 56.5,114.5C 56.3335,124.172 56.5002,133.839 57,143.5C 58.2515,145.001 59.2515,146.668 60,148.5C 60.7048,145.524 61.8714,142.858 63.5,140.5C 62.9782,143.568 62.1449,146.568 61,149.5C 60.3292,150.252 59.4959,150.586 58.5,150.5C 56.0319,146.936 55.0319,142.936 55.5,138.5C 55.7159,129.467 55.3825,120.467 54.5,111.5 Z"/></g>
<g><path style="opacity:0.902" fill="#edc48d" d="M 65.5,134.5 C 65.7406,136.898 65.0739,138.898 63.5,140.5C 63.5,139.167 63.5,137.833 63.5,136.5C 64.1667,135.833 64.8333,135.167 65.5,134.5 Z"/></g>
<g><path style="opacity:0.8" fill="#efc98a" d="M 239.5,134.5 C 240.537,135.93 241.204,137.597 241.5,139.5C 239.787,138.365 239.12,136.698 239.5,134.5 Z"/></g>
<g><path style="opacity:0.651" fill="#f0cd97" d="M 189.5,140.5 C 185.316,141.166 180.982,141.833 176.5,142.5C 177.715,149.126 178.715,155.792 179.5,162.5C 178.134,159.039 177.134,155.373 176.5,151.5C 176.276,147.821 175.942,144.154 175.5,140.5C 180.167,140.5 184.833,140.5 189.5,140.5 Z"/></g>
<g><path style="opacity:1" fill="#682516" d="M 202.5,139.5 C 202.5,146.5 202.5,153.5 202.5,160.5C 201.515,156.366 201.182,152.032 201.5,147.5C 200.5,147.5 199.5,147.5 198.5,147.5C 197.494,154.968 196.494,162.301 195.5,169.5C 195.5,159.167 195.5,148.833 195.5,138.5C 194.5,138.5 193.5,138.5 192.5,138.5C 196.134,134.472 199.467,134.805 202.5,139.5 Z"/></g>
<g><path style="opacity:0.275" fill="#e8d2ad" d="M 25.5,141.5 C 25.573,143.027 24.9063,144.027 23.5,144.5C 23.427,142.973 24.0937,141.973 25.5,141.5 Z"/></g>
<g><path style="opacity:0.22" fill="#e7d6b8" d="M 22.5,146.5 C 22.573,148.027 21.9063,149.027 20.5,149.5C 20.427,147.973 21.0937,146.973 22.5,146.5 Z"/></g>
<g><path style="opacity:0.315" fill="#ceb0a6" d="M 191.5,139.5 C 191.5,139.167 191.5,138.833 191.5,138.5C 191.833,138.5 192.167,138.5 192.5,138.5C 193.5,138.5 194.5,138.5 195.5,138.5C 195.5,148.833 195.5,159.167 195.5,169.5C 195.167,169.5 194.833,169.5 194.5,169.5C 194.5,159.5 194.5,149.5 194.5,139.5C 193.5,139.5 192.5,139.5 191.5,139.5 Z"/></g>
<g><path style="opacity:0.135" fill="#e7d1bc" d="M 126.5,138.5 C 126.328,139.492 126.662,140.158 127.5,140.5C 127.5,144.833 127.5,149.167 127.5,153.5C 127.5,159.833 127.5,166.167 127.5,172.5C 127.5,183.167 127.5,193.833 127.5,204.5C 127.5,212.833 127.5,221.167 127.5,229.5C 126.686,227.369 126.186,225.036 126,222.5C 125.17,194.33 125.336,166.33 126.5,138.5 Z"/></g>
<g><path style="opacity:1" fill="#f5a01e" d="M 101.5,146.5 C 93.6023,147.635 93.6023,148.468 101.5,149C 100.975,149.692 100.308,150.192 99.5,150.5C 97.5675,149.48 95.5675,149.313 93.5,150C 94.5,150.333 95.5,150.667 96.5,151C 93.0543,151.661 89.7209,152.495 86.5,153.5C 86.33,152.178 86.6634,151.011 87.5,150C 89.2464,149.529 90.913,148.862 92.5,148C 90.9238,147.56 89.5904,146.727 88.5,145.5C 86.5784,147.003 85.4117,149.003 85,151.5C 81.6161,151.024 78.6161,149.69 76,147.5C 75.5078,148.549 75.6744,149.549 76.5,150.5C 78.4233,151.308 80.4233,151.808 82.5,152C 78.0684,152.623 77.7351,153.623 81.5,155C 80.5,155.333 79.5,155.667 78.5,156C 80.3632,157.418 80.8632,159.251 80,161.5C 78.2663,160.751 76.433,160.251 74.5,160C 75.4378,158.937 76.4378,157.77 77.5,156.5C 76.0909,156.346 74.4242,156.179 72.5,156C 73.448,155.517 74.448,155.351 75.5,155.5C 75.4139,153.323 74.7472,151.323 73.5,149.5C 72.7261,148.289 71.8928,148.289 71,149.5C 70.6095,145.834 69.4429,145.668 67.5,149C 69.3008,149.317 69.6341,149.984 68.5,151C 69.9561,151.423 70.4561,152.256 70,153.5C 67.2299,152.675 64.5633,152.341 62,152.5C 59.9774,154.013 60.1441,155.346 62.5,156.5C 62.2907,157.086 61.9574,157.586 61.5,158C 63.5,158 65.5,158 67.5,158C 66.5851,162.839 64.9184,163.339 62.5,159.5C 61.023,161.82 59.1896,163.153 57,163.5C 56.4169,161.998 55.5836,160.665 54.5,159.5C 51.4767,161.161 49.1433,160.495 47.5,157.5C 47.1667,157.667 46.8333,157.833 46.5,158C 48.5,160.333 50.5,162.667 52.5,165C 50.3807,163.98 48.0474,163.646 45.5,164C 46.5719,165.284 47.9052,165.617 49.5,165C 47.3863,166.518 45.053,166.851 42.5,166C 43.9928,164.844 43.8261,164.01 42,163.5C 40.5349,164.33 39.0349,164.496 37.5,164C 38.9494,162.883 40.6161,162.216 42.5,162C 39.725,161.222 37.225,161.722 35,163.5C 34.5,163.167 34,162.833 33.5,162.5C 34.3256,161.549 34.4922,160.549 34,159.5C 32.8525,160.458 31.8525,160.125 31,158.5C 31.5098,160.38 31.3431,162.213 30.5,164C 28.236,164.236 26.0693,164.736 24,165.5C 23.6924,164.692 23.1924,164.025 22.5,163.5C 21.3044,163.846 21.3044,164.346 22.5,165C 21.9056,165.464 21.2389,165.631 20.5,165.5C 20.5,160.5 20.5,155.5 20.5,150.5C 21.8333,150.5 23.1667,150.5 24.5,150.5C 24.3505,149.448 24.5172,148.448 25,147.5C 25.3333,147.833 25.6667,148.167 26,148.5C 27.5719,144.475 28.7386,144.642 29.5,149C 26.8941,149.45 25.5608,150.95 25.5,153.5C 28.8873,152.982 32.2206,152.149 35.5,151C 34.1279,150.598 32.7946,150.098 31.5,149.5C 30.1667,148.833 30.1667,148.167 31.5,147.5C 34.0123,148.38 36.179,149.713 38,151.5C 38.9246,150.953 39.7579,150.287 40.5,149.5C 38.9223,148.702 37.2556,148.202 35.5,148C 37,147.5 38.5,147 40,146.5C 42.4734,147.384 44.8068,147.717 47,147.5C 47.6667,146.833 48.3333,146.167 49,145.5C 48.0826,150.269 49.416,150.603 53,146.5C 53.5,147 54,147.5 54.5,148C 53.8948,149.827 52.2281,151.16 49.5,152C 52.5943,152.251 55.5943,151.751 58.5,150.5C 59.4959,150.586 60.3292,150.252 61,149.5C 62.1449,146.568 62.9782,143.568 63.5,140.5C 65.0739,138.898 65.7406,136.898 65.5,134.5C 65.5,134.167 65.5,133.833 65.5,133.5C 65.8333,133.5 66.1667,133.5 66.5,133.5C 68.1683,135.513 70.1683,137.18 72.5,138.5C 73.723,139.614 75.0563,139.781 76.5,139C 75.1667,138.333 75.1667,137.667 76.5,137C 75.8333,136.667 75.1667,136.333 74.5,136C 75.6226,134.956 76.9559,134.29 78.5,134C 77.8333,132.667 76.8333,131.667 75.5,131C 77.7261,129.773 79.2261,127.939 80,125.5C 81.6667,126.833 83.3333,126.833 85,125.5C 85.6877,124.668 85.521,124.002 84.5,123.5C 83.2322,124.428 81.8989,124.595 80.5,124C 83.7718,121.654 86.4384,122.154 88.5,125.5C 87.0663,126.23 85.8996,127.23 85,128.5C 83.5064,127.253 82.0064,127.253 80.5,128.5C 81.2739,129.711 82.1072,129.711 83,128.5C 84.4811,131.044 86.6478,132.71 89.5,133.5C 89.9106,132.738 90.0773,131.738 90,130.5C 90.414,130.957 90.914,131.291 91.5,131.5C 91.4895,130.559 91.9895,129.892 93,129.5C 94.9246,131.085 97.0913,132.252 99.5,133C 98.1218,134.713 96.4552,136.047 94.5,137C 95.938,137.219 97.2713,137.719 98.5,138.5C 98.1543,139.696 97.6543,139.696 97,138.5C 93.9631,141.534 94.7965,142.2 99.5,140.5C 99.8333,140.833 100.167,141.167 100.5,141.5C 99.2713,142.281 97.938,142.781 96.5,143C 98.1667,143.333 99.8333,143.667 101.5,144C 100.833,144.333 100.167,144.667 99.5,145C 100.416,145.278 101.082,145.778 101.5,146.5 Z"/></g>
<g><path style="opacity:1" fill="#f59d1f" d="M 101.5,146.5 C 102.71,146.932 103.71,147.599 104.5,148.5C 104.167,152.5 103.833,156.5 103.5,160.5C 101.864,164.21 101.198,168.21 101.5,172.5C 101.167,172.5 100.833,172.5 100.5,172.5C 100.5,171.167 100.5,169.833 100.5,168.5C 95.4892,167.808 90.4892,166.974 85.5,166C 87.9519,165.71 90.2852,165.044 92.5,164C 91.552,163.517 90.552,163.351 89.5,163.5C 89.6495,162.448 89.4828,161.448 89,160.5C 87.1682,162.934 85.0015,164.934 82.5,166.5C 86.5255,166.813 90.5255,167.98 94.5,170C 92.5,170.667 90.5,171.333 88.5,172C 89.5,172.333 90.5,172.667 91.5,173C 89.5453,175.071 87.212,175.738 84.5,175C 85.5,174.667 86.5,174.333 87.5,174C 86.2298,173.1 85.2298,171.934 84.5,170.5C 83.8076,171.025 83.3076,171.692 83,172.5C 80.2714,171.38 77.6047,169.38 75,166.5C 75.2626,167.951 75.0959,169.284 74.5,170.5C 72.4841,166.624 71.6508,166.624 72,170.5C 69.0233,169.543 66.5233,170.376 64.5,173C 68.1108,172.373 71.7774,172.04 75.5,172C 77.9659,172.93 77.7993,173.763 75,174.5C 73.9433,173.373 72.7766,172.873 71.5,173C 72.6405,173.741 72.6405,174.575 71.5,175.5C 75.3347,177.163 75.0014,177.663 70.5,177C 69.0692,176.535 67.9025,175.701 67,174.5C 66.3333,175.833 65.6667,177.167 65,178.5C 63.3831,177.464 63.2164,176.297 64.5,175C 63.5,174.667 62.5,174.333 61.5,174C 62.4506,173.282 62.6172,172.449 62,171.5C 61.0853,172.328 60.4186,173.328 60,174.5C 59.3333,173.5 59.3333,172.5 60,171.5C 64.1609,169.915 64.3276,168.249 60.5,166.5C 58.7648,167.057 57.0982,167.39 55.5,167.5C 55.8076,168.308 56.3076,168.975 57,169.5C 58.3876,168.446 59.8876,168.28 61.5,169C 58.2132,169.745 57.2132,171.578 58.5,174.5C 56.9255,175.631 55.2588,175.798 53.5,175C 54.6341,173.984 54.3008,173.317 52.5,173C 53.8333,172.667 55.1667,172.333 56.5,172C 54.4213,171.192 52.4213,171.359 50.5,172.5C 51.025,176.144 50.3583,175.81 48.5,171.5C 45.2937,170.192 41.9604,169.525 38.5,169.5C 38.3287,172.797 38.9954,173.131 40.5,170.5C 41.5,170.833 42.1667,171.5 42.5,172.5C 41.0295,173.417 39.5295,174.417 38,175.5C 36.9326,174.809 35.7659,174.309 34.5,174C 36.504,172.64 37.3374,170.807 37,168.5C 33.9419,169.763 30.7752,170.763 27.5,171.5C 29.0777,172.298 30.7444,172.798 32.5,173C 29.9107,174.314 27.2441,174.981 24.5,175C 27.1667,174.333 27.1667,173.667 24.5,173C 25.8333,172.333 25.8333,171.667 24.5,171C 23.2559,170.544 22.4226,171.044 22,172.5C 21.7216,171.584 21.2216,170.918 20.5,170.5C 20.5,168.833 20.5,167.167 20.5,165.5C 21.2389,165.631 21.9056,165.464 22.5,165C 21.3044,164.346 21.3044,163.846 22.5,163.5C 23.1924,164.025 23.6924,164.692 24,165.5C 26.0693,164.736 28.236,164.236 30.5,164C 31.3431,162.213 31.5098,160.38 31,158.5C 31.8525,160.125 32.8525,160.458 34,159.5C 34.4922,160.549 34.3256,161.549 33.5,162.5C 34,162.833 34.5,163.167 35,163.5C 37.225,161.722 39.725,161.222 42.5,162C 40.6161,162.216 38.9494,162.883 37.5,164C 39.0349,164.496 40.5349,164.33 42,163.5C 43.8261,164.01 43.9928,164.844 42.5,166C 45.053,166.851 47.3863,166.518 49.5,165C 47.9052,165.617 46.5719,165.284 45.5,164C 48.0474,163.646 50.3807,163.98 52.5,165C 50.5,162.667 48.5,160.333 46.5,158C 46.8333,157.833 47.1667,157.667 47.5,157.5C 49.1433,160.495 51.4767,161.161 54.5,159.5C 55.5836,160.665 56.4169,161.998 57,163.5C 59.1896,163.153 61.023,161.82 62.5,159.5C 64.9184,163.339 66.5851,162.839 67.5,158C 65.5,158 63.5,158 61.5,158C 61.9574,157.586 62.2907,157.086 62.5,156.5C 60.1441,155.346 59.9774,154.013 62,152.5C 64.5633,152.341 67.2299,152.675 70,153.5C 70.4561,152.256 69.9561,151.423 68.5,151C 69.6341,149.984 69.3008,149.317 67.5,149C 69.4429,145.668 70.6095,145.834 71,149.5C 71.8928,148.289 72.7261,148.289 73.5,149.5C 74.7472,151.323 75.4139,153.323 75.5,155.5C 74.448,155.351 73.448,155.517 72.5,156C 74.4242,156.179 76.0909,156.346 77.5,156.5C 76.4378,157.77 75.4378,158.937 74.5,160C 76.433,160.251 78.2663,160.751 80,161.5C 80.8632,159.251 80.3632,157.418 78.5,156C 79.5,155.667 80.5,155.333 81.5,155C 77.7351,153.623 78.0684,152.623 82.5,152C 80.4233,151.808 78.4233,151.308 76.5,150.5C 75.6744,149.549 75.5078,148.549 76,147.5C 78.6161,149.69 81.6161,151.024 85,151.5C 85.4117,149.003 86.5784,147.003 88.5,145.5C 89.5904,146.727 90.9238,147.56 92.5,148C 90.913,148.862 89.2464,149.529 87.5,150C 86.6634,151.011 86.33,152.178 86.5,153.5C 89.7209,152.495 93.0543,151.661 96.5,151C 95.5,150.667 94.5,150.333 93.5,150C 95.5675,149.313 97.5675,149.48 99.5,150.5C 100.308,150.192 100.975,149.692 101.5,149C 93.6023,148.468 93.6023,147.635 101.5,146.5 Z"/></g>
<g><path style="opacity:0.345" fill="#f5d1a1" d="M 241.5,140.5 C 242.663,166.663 242.83,192.997 242,219.5C 240.871,221.141 239.371,222.141 237.5,222.5C 238.684,221.312 238.684,220.145 237.5,219C 238.793,218.51 240.127,218.343 241.5,218.5C 241.5,214.5 241.5,210.5 241.5,206.5C 241.5,196.167 241.5,185.833 241.5,175.5C 241.5,167.5 241.5,159.5 241.5,151.5C 241.5,147.833 241.5,144.167 241.5,140.5 Z"/></g>
<g><path style="opacity:0.682" fill="#b8836e" d="M 104.5,148.5 C 104.833,148.5 105.167,148.5 105.5,148.5C 105.216,150.415 105.549,152.081 106.5,153.5C 106.656,157.764 105.989,161.764 104.5,165.5C 104.784,163.585 104.451,161.919 103.5,160.5C 103.833,156.5 104.167,152.5 104.5,148.5 Z"/></g>
<g><path style="opacity:0.98" fill="#7e3a27" d="M 103.5,160.5 C 104.451,161.919 104.784,163.585 104.5,165.5C 104.5,166.5 104.5,167.5 104.5,168.5C 103.732,169.263 103.232,170.263 103,171.5C 102.721,167.83 102.888,164.163 103.5,160.5 Z"/></g>
<g><path style="opacity:1" fill="#4d170e" d="M 202.5,160.5 C 202.666,165.179 202.499,169.845 202,174.5C 197.51,181.476 195.343,189.142 195.5,197.5C 194.527,199.948 194.194,202.615 194.5,205.5C 192.39,204.547 191.223,202.881 191,200.5C 190.501,194.843 190.334,189.176 190.5,183.5C 191.374,180.211 192.041,176.877 192.5,173.5C 194.446,172.965 195.446,171.632 195.5,169.5C 196.494,162.301 197.494,154.968 198.5,147.5C 199.5,147.5 200.5,147.5 201.5,147.5C 201.182,152.032 201.515,156.366 202.5,160.5 Z"/></g>
<g><path style="opacity:1" fill="#f59d22" d="M 176.5,151.5 C 177.134,155.373 178.134,159.039 179.5,162.5C 181.302,169.247 181.635,175.914 180.5,182.5C 180.5,181.5 180.5,180.5 180.5,179.5C 177.873,178.908 175.206,178.575 172.5,178.5C 172.48,176.857 173.147,175.524 174.5,174.5C 174,173.5 173.5,172.5 173,171.5C 172.234,173.933 170.734,175.766 168.5,177C 166.633,177.711 165.133,177.211 164,175.5C 164.42,179.338 163.253,179.504 160.5,176C 161.711,175.107 161.711,174.274 160.5,173.5C 158.091,176.041 155.424,177.374 152.5,177.5C 152.835,176.336 152.835,175.003 152.5,173.5C 149.736,175.608 146.736,175.941 143.5,174.5C 145.04,173.468 145.54,172.135 145,170.5C 144.029,171.198 142.863,171.198 141.5,170.5C 139.771,172.228 137.771,173.561 135.5,174.5C 130.374,171.647 130.874,170.98 137,172.5C 137.5,172 138,171.5 138.5,171C 137.207,170.51 135.873,170.343 134.5,170.5C 134.351,169.448 134.517,168.448 135,167.5C 135.654,168.696 136.154,168.696 136.5,167.5C 135.045,166.255 133.711,166.422 132.5,168C 132.833,168.333 133.167,168.667 133.5,169C 130.975,169.424 128.975,170.59 127.5,172.5C 127.5,166.167 127.5,159.833 127.5,153.5C 128.833,153.5 130.167,153.5 131.5,153.5C 131.297,151.362 130.297,149.695 128.5,148.5C 129.242,147.713 130.075,147.047 131,146.5C 132.067,148.283 133.567,148.783 135.5,148C 134.483,146.951 134.316,145.784 135,144.5C 135.419,145.672 136.085,146.672 137,147.5C 138.333,146.167 139.667,146.167 141,147.5C 141.127,146.223 140.627,145.057 139.5,144C 139.833,143.5 140.167,143 140.5,142.5C 141.795,143.098 143.128,143.598 144.5,144C 142.109,144.691 142.109,145.691 144.5,147C 142.776,147.448 142.109,148.282 142.5,149.5C 141.549,148.674 140.549,148.508 139.5,149C 141.683,150.694 144.016,150.861 146.5,149.5C 147.973,144.763 149.306,144.596 150.5,149C 148.333,149.833 146.833,151.333 146,153.5C 145.667,153.167 145.333,152.833 145,152.5C 144.409,153.483 144.743,154.15 146,154.5C 150.022,152.95 153.856,151.783 157.5,151C 155.026,150.887 153.026,149.887 151.5,148C 153.92,148.988 156.253,148.655 158.5,147C 157.376,146.751 156.376,146.251 155.5,145.5C 156.833,144.5 156.833,143.5 155.5,142.5C 157.523,141.145 159.523,140.812 161.5,141.5C 156.279,142.624 156.279,143.458 161.5,144C 160.833,144.333 160.167,144.667 159.5,145C 161.044,145.29 162.377,145.956 163.5,147C 166.224,146.862 168.557,146.362 170.5,145.5C 171.189,143.662 171.522,141.995 171.5,140.5C 172.357,141.736 173.023,143.069 173.5,144.5C 172.391,146.214 173.058,146.881 175.5,146.5C 175.5,147.833 175.5,149.167 175.5,150.5C 174.448,150.351 173.448,150.517 172.5,151C 173.878,152.334 175.211,152.501 176.5,151.5 Z"/></g>
<g><path style="opacity:1" fill="#f59c1f" d="M 241.5,151.5 C 241.5,159.5 241.5,167.5 241.5,175.5C 238.074,175.728 235.407,174.395 233.5,171.5C 232.904,172.716 232.737,174.049 233,175.5C 231.933,174.809 230.766,174.309 229.5,174C 230.731,172.817 230.731,171.651 229.5,170.5C 228.749,171.376 228.249,172.376 228,173.5C 227.035,171.74 225.868,171.406 224.5,172.5C 226.295,174.703 228.629,175.869 231.5,176C 229.671,176.273 228.171,177.107 227,178.5C 225.342,176.677 223.509,175.01 221.5,173.5C 220.808,174.025 220.308,174.692 220,175.5C 218.612,174.446 217.112,174.28 215.5,175C 219.19,175.424 219.357,176.258 216,177.5C 214.415,176.624 213.415,175.291 213,173.5C 211.663,176.002 209.829,178.002 207.5,179.5C 208.035,181.271 208.869,181.604 210,180.5C 210.667,181.5 210.667,182.5 210,183.5C 209.667,183.167 209.333,182.833 209,182.5C 206.94,186.113 204.44,186.446 201.5,183.5C 200.817,183.863 200.15,184.196 199.5,184.5C 200.326,181.515 201.659,178.849 203.5,176.5C 204.167,167.991 204.833,159.324 205.5,150.5C 206.795,149.902 208.128,149.402 209.5,149C 208.216,147.703 208.383,146.536 210,145.5C 213.025,147.265 216.192,148.931 219.5,150.5C 221.335,151.428 221.668,152.594 220.5,154C 222.259,154.798 223.926,154.631 225.5,153.5C 228.256,148.087 227.422,147.421 223,151.5C 222.517,150.552 222.351,149.552 222.5,148.5C 220.023,148.949 218.023,148.283 216.5,146.5C 218.007,145.261 219.174,145.595 220,147.5C 222.405,147.036 224.905,146.869 227.5,147C 228.09,145.491 228.756,143.991 229.5,142.5C 230.096,143.716 230.263,145.049 230,146.5C 230.654,145.304 231.154,145.304 231.5,146.5C 230.624,147.251 229.624,147.751 228.5,148C 229.308,148.308 229.975,148.808 230.5,149.5C 228.96,150.532 228.46,151.865 229,153.5C 230.617,152.149 231.784,150.482 232.5,148.5C 233.5,149 234.5,149.5 235.5,150C 231.614,150.579 231.614,151.412 235.5,152.5C 237.43,150.826 239.43,150.493 241.5,151.5 Z"/></g>
<g><path style="opacity:0.639" fill="#c9a18e" d="M 103.5,160.5 C 102.888,164.163 102.721,167.83 103,171.5C 103.232,170.263 103.732,169.263 104.5,168.5C 104.435,171.428 103.768,174.095 102.5,176.5C 102.768,174.901 102.434,173.568 101.5,172.5C 101.198,168.21 101.864,164.21 103.5,160.5 Z"/></g>
<g><path style="opacity:1" fill="#896c61" d="M 194.5,169.5 C 194.833,169.5 195.167,169.5 195.5,169.5C 195.446,171.632 194.446,172.965 192.5,173.5C 192.66,171.847 193.326,170.514 194.5,169.5 Z"/></g>
<g><path style="opacity:1" fill="#f49723" d="M 100.5,172.5 C 99.4847,179.894 98.1514,187.227 96.5,194.5C 96.4249,197.206 96.0916,199.873 95.5,202.5C 95.1667,202.5 94.8333,202.5 94.5,202.5C 94.5,201.167 94.5,199.833 94.5,198.5C 93.0695,198.421 91.7362,198.754 90.5,199.5C 89.3044,199.154 89.3044,198.654 90.5,198C 89.8333,197.333 89.1667,197.333 88.5,198C 87.6272,200.932 86.4605,203.765 85,206.5C 80.8882,204.214 80.8882,202.547 85,201.5C 85.6172,200.551 85.4506,199.718 84.5,199C 82.9651,198.504 81.4651,198.67 80,199.5C 77.5243,201.655 74.6909,203.155 71.5,204C 72.6956,204.654 72.6956,205.154 71.5,205.5C 70.7189,204.271 70.2189,202.938 70,201.5C 68.4174,203.993 66.9174,203.826 65.5,201C 68.154,199.495 69.654,197.328 70,194.5C 69,195.833 68,195.833 67,194.5C 66.51,195.793 66.3433,197.127 66.5,198.5C 60.7389,198.291 60.4055,197.458 65.5,196C 61.8478,195.103 58.1811,194.27 54.5,193.5C 51.499,194.665 48.8324,196.332 46.5,198.5C 44.1725,199.724 41.8392,199.724 39.5,198.5C 38.4679,200.04 37.1346,200.54 35.5,200C 36.8333,199.333 36.8333,198.667 35.5,198C 37.5,197.667 39.5,197.333 41.5,197C 40.8921,196.13 40.0588,195.63 39,195.5C 37.5603,196.148 36.0603,196.481 34.5,196.5C 34.5332,199.742 33.1998,200.075 30.5,197.5C 31.5896,196.391 31.5896,195.391 30.5,194.5C 28.6675,195.248 27.0009,196.248 25.5,197.5C 24.914,197.291 24.414,196.957 24,196.5C 23.5065,198.134 23.3398,199.801 23.5,201.5C 22.1476,193.683 21.1476,185.683 20.5,177.5C 20.5,175.167 20.5,172.833 20.5,170.5C 21.2216,170.918 21.7216,171.584 22,172.5C 22.4226,171.044 23.2559,170.544 24.5,171C 25.8333,171.667 25.8333,172.333 24.5,173C 27.1667,173.667 27.1667,174.333 24.5,175C 27.2441,174.981 29.9107,174.314 32.5,173C 30.7444,172.798 29.0777,172.298 27.5,171.5C 30.7752,170.763 33.9419,169.763 37,168.5C 37.3374,170.807 36.504,172.64 34.5,174C 35.7659,174.309 36.9326,174.809 38,175.5C 39.5295,174.417 41.0295,173.417 42.5,172.5C 42.1667,171.5 41.5,170.833 40.5,170.5C 38.9954,173.131 38.3287,172.797 38.5,169.5C 41.9604,169.525 45.2937,170.192 48.5,171.5C 50.3583,175.81 51.025,176.144 50.5,172.5C 52.4213,171.359 54.4213,171.192 56.5,172C 55.1667,172.333 53.8333,172.667 52.5,173C 54.3008,173.317 54.6341,173.984 53.5,175C 55.2588,175.798 56.9255,175.631 58.5,174.5C 57.2132,171.578 58.2132,169.745 61.5,169C 59.8876,168.28 58.3876,168.446 57,169.5C 56.3076,168.975 55.8076,168.308 55.5,167.5C 57.0982,167.39 58.7648,167.057 60.5,166.5C 64.3276,168.249 64.1609,169.915 60,171.5C 59.3333,172.5 59.3333,173.5 60,174.5C 60.4186,173.328 61.0853,172.328 62,171.5C 62.6172,172.449 62.4506,173.282 61.5,174C 62.5,174.333 63.5,174.667 64.5,175C 63.2164,176.297 63.3831,177.464 65,178.5C 65.6667,177.167 66.3333,175.833 67,174.5C 67.9025,175.701 69.0692,176.535 70.5,177C 75.0014,177.663 75.3347,177.163 71.5,175.5C 72.6405,174.575 72.6405,173.741 71.5,173C 72.7766,172.873 73.9433,173.373 75,174.5C 77.7993,173.763 77.9659,172.93 75.5,172C 71.7774,172.04 68.1108,172.373 64.5,173C 66.5233,170.376 69.0233,169.543 72,170.5C 71.6508,166.624 72.4841,166.624 74.5,170.5C 75.0959,169.284 75.2626,167.951 75,166.5C 77.6047,169.38 80.2714,171.38 83,172.5C 83.3076,171.692 83.8076,171.025 84.5,170.5C 85.2298,171.934 86.2298,173.1 87.5,174C 86.5,174.333 85.5,174.667 84.5,175C 87.212,175.738 89.5453,175.071 91.5,173C 90.5,172.667 89.5,172.333 88.5,172C 90.5,171.333 92.5,170.667 94.5,170C 90.5255,167.98 86.5255,166.813 82.5,166.5C 85.0015,164.934 87.1682,162.934 89,160.5C 89.4828,161.448 89.6495,162.448 89.5,163.5C 90.552,163.351 91.552,163.517 92.5,164C 90.2852,165.044 87.9519,165.71 85.5,166C 90.4892,166.974 95.4892,167.808 100.5,168.5C 100.5,169.833 100.5,171.167 100.5,172.5 Z"/></g>
<g><path style="opacity:1" fill="#f49521" d="M 241.5,175.5 C 241.5,185.833 241.5,196.167 241.5,206.5C 240.087,207.991 238.587,208.658 237,208.5C 235.745,207.789 234.579,206.956 233.5,206C 234.167,205.667 234.833,205.333 235.5,205C 233.231,203.442 230.898,203.276 228.5,204.5C 229.025,205.192 229.692,205.692 230.5,206C 227.874,206.995 225.207,207.328 222.5,207C 224.007,206.163 224.507,204.996 224,203.5C 222.137,206.904 220.303,207.071 218.5,204C 220.246,203.529 221.913,202.862 223.5,202C 220.768,201.846 218.102,202.346 215.5,203.5C 214.713,202.758 214.047,201.925 213.5,201C 214.451,200.282 214.617,199.449 214,198.5C 212.054,199.747 210.22,201.08 208.5,202.5C 209.289,204.488 210.455,204.821 212,203.5C 213.648,204.717 215.481,205.55 217.5,206C 215.913,206.862 214.246,207.529 212.5,208C 216.515,210.107 216.182,210.773 211.5,210C 210.318,208.322 209.152,208.488 208,210.5C 207.5,210.167 207,209.833 206.5,209.5C 208.033,205.771 207.533,205.104 205,207.5C 203.238,207.056 203.405,206.556 205.5,206C 197.912,202.921 195.579,205.254 198.5,213C 197.906,213.464 197.239,213.631 196.5,213.5C 196.5,210.5 196.5,207.5 196.5,204.5C 196.206,197.6 197.206,190.933 199.5,184.5C 200.15,184.196 200.817,183.863 201.5,183.5C 204.44,186.446 206.94,186.113 209,182.5C 209.333,182.833 209.667,183.167 210,183.5C 210.667,182.5 210.667,181.5 210,180.5C 208.869,181.604 208.035,181.271 207.5,179.5C 209.829,178.002 211.663,176.002 213,173.5C 213.415,175.291 214.415,176.624 216,177.5C 219.357,176.258 219.19,175.424 215.5,175C 217.112,174.28 218.612,174.446 220,175.5C 220.308,174.692 220.808,174.025 221.5,173.5C 223.509,175.01 225.342,176.677 227,178.5C 228.171,177.107 229.671,176.273 231.5,176C 228.629,175.869 226.295,174.703 224.5,172.5C 225.868,171.406 227.035,171.74 228,173.5C 228.249,172.376 228.749,171.376 229.5,170.5C 230.731,171.651 230.731,172.817 229.5,174C 230.766,174.309 231.933,174.809 233,175.5C 232.737,174.049 232.904,172.716 233.5,171.5C 235.407,174.395 238.074,175.728 241.5,175.5 Z"/></g>
<g><path style="opacity:1" fill="#f49622" d="M 180.5,182.5 C 179.497,186.521 178.497,190.521 177.5,194.5C 176.011,198.236 175.344,202.236 175.5,206.5C 172.402,206.587 172.068,206.087 174.5,205C 173.24,203.887 172.073,203.72 171,204.5C 170.25,203.874 169.416,203.374 168.5,203C 169.956,202.577 170.456,201.744 170,200.5C 168.326,201.065 166.493,201.232 164.5,201C 163.013,203.485 161.179,205.652 159,207.5C 158.667,206.833 158.333,206.167 158,205.5C 156.612,206.554 155.112,206.72 153.5,206C 157.268,204.823 157.101,203.656 153,202.5C 153,201.167 153,199.833 153,198.5C 148.893,199.607 146.56,202.274 146,206.5C 142.494,205.966 139.328,204.633 136.5,202.5C 135.749,203.376 135.249,204.376 135,205.5C 134,202.833 133,202.833 132,205.5C 131.517,204.552 131.351,203.552 131.5,202.5C 129.801,202.527 128.467,203.194 127.5,204.5C 127.5,193.833 127.5,183.167 127.5,172.5C 128.975,170.59 130.975,169.424 133.5,169C 133.167,168.667 132.833,168.333 132.5,168C 133.711,166.422 135.045,166.255 136.5,167.5C 136.154,168.696 135.654,168.696 135,167.5C 134.517,168.448 134.351,169.448 134.5,170.5C 135.873,170.343 137.207,170.51 138.5,171C 138,171.5 137.5,172 137,172.5C 130.874,170.98 130.374,171.647 135.5,174.5C 137.771,173.561 139.771,172.228 141.5,170.5C 142.863,171.198 144.029,171.198 145,170.5C 145.54,172.135 145.04,173.468 143.5,174.5C 146.736,175.941 149.736,175.608 152.5,173.5C 152.835,175.003 152.835,176.336 152.5,177.5C 155.424,177.374 158.091,176.041 160.5,173.5C 161.711,174.274 161.711,175.107 160.5,176C 163.253,179.504 164.42,179.338 164,175.5C 165.133,177.211 166.633,177.711 168.5,177C 170.734,175.766 172.234,173.933 173,171.5C 173.5,172.5 174,173.5 174.5,174.5C 173.147,175.524 172.48,176.857 172.5,178.5C 175.206,178.575 177.873,178.908 180.5,179.5C 180.5,180.5 180.5,181.5 180.5,182.5 Z"/></g>
<g><path style="opacity:0.937" fill="#997d73" d="M 192.5,173.5 C 192.041,176.877 191.374,180.211 190.5,183.5C 190.167,183.5 189.833,183.5 189.5,183.5C 189.723,179.838 190.723,176.505 192.5,173.5 Z"/></g>
<g><path style="opacity:0.988" fill="#ad7962" d="M 100.5,172.5 C 100.833,172.5 101.167,172.5 101.5,172.5C 102.434,173.568 102.768,174.901 102.5,176.5C 102.041,183.46 100.708,190.127 98.5,196.5C 98.6567,195.127 98.49,193.793 98,192.5C 97.7216,193.416 97.2216,194.082 96.5,194.5C 98.1514,187.227 99.4847,179.894 100.5,172.5 Z"/></g>
<g><path style="opacity:0.184" fill="#cebca7" d="M 202.5,139.5 C 203.495,151.655 203.829,163.989 203.5,176.5C 201.659,178.849 200.326,181.515 199.5,184.5C 197.206,190.933 196.206,197.6 196.5,204.5C 196.167,204.5 195.833,204.5 195.5,204.5C 195.5,202.167 195.5,199.833 195.5,197.5C 195.343,189.142 197.51,181.476 202,174.5C 202.499,169.845 202.666,165.179 202.5,160.5C 202.5,153.5 202.5,146.5 202.5,139.5 Z"/></g>
<g><path style="opacity:1" fill="#aa6b58" d="M 189.5,185.5 C 189.333,196.505 189.5,207.505 190,218.5C 191.926,220.469 193.092,222.802 193.5,225.5C 190.769,223.929 188.935,221.595 188,218.5C 187.092,207.285 187.592,196.285 189.5,185.5 Z"/></g>
<g><path style="opacity:1" fill="#783827" d="M 98.5,196.5 C 98.5,197.167 98.5,197.833 98.5,198.5C 99.9331,200.558 100.6,202.892 100.5,205.5C 99.8423,206.398 99.1757,207.398 98.5,208.5C 96.0217,207.278 95.0217,205.278 95.5,202.5C 96.0916,199.873 96.4249,197.206 96.5,194.5C 97.2216,194.082 97.7216,193.416 98,192.5C 98.49,193.793 98.6567,195.127 98.5,196.5 Z"/></g>
<g><path style="opacity:0.427" fill="#caaea3" d="M 98.5,198.5 C 101.449,200.265 102.115,202.598 100.5,205.5C 100.6,202.892 99.9331,200.558 98.5,198.5 Z"/></g>
<g><path style="opacity:1" fill="#f39125" d="M 94.5,202.5 C 93.8748,205.97 94.8748,208.804 97.5,211C 96.6198,212.356 96.2865,213.856 96.5,215.5C 96.1667,215.5 95.8333,215.5 95.5,215.5C 94.3991,214.402 93.0657,214.235 91.5,215C 92.1667,215.333 92.8333,215.667 93.5,216C 92.6921,217.706 91.3588,218.539 89.5,218.5C 89.5875,215.402 89.0875,215.068 88,217.5C 87.7165,215.114 86.7165,214.448 85,215.5C 84.5495,212.894 83.0495,211.561 80.5,211.5C 80.3433,212.873 80.51,214.207 81,215.5C 81.5556,213.405 82.0556,213.238 82.5,215C 81.3507,216.73 81.3507,218.396 82.5,220C 80.3377,219.618 78.5044,218.452 77,216.5C 75.1246,217.742 73.2913,219.076 71.5,220.5C 70.914,220.291 70.414,219.957 70,219.5C 68.6932,220.772 67.1932,221.772 65.5,222.5C 65.8333,223.5 66.5,224.167 67.5,224.5C 69.4354,221.431 71.1021,221.264 72.5,224C 71.3333,224.5 70.5,225.333 70,226.5C 67.5889,226.771 65.0889,226.438 62.5,225.5C 61.7437,223.387 61.5771,221.387 62,219.5C 61.6667,219.833 61.3333,220.167 61,220.5C 59.9326,219.809 58.7659,219.309 57.5,219C 56.624,217.414 55.624,215.914 54.5,214.5C 53.9805,216.436 54.6472,218.269 56.5,220C 56,220.5 55.5,221 55,221.5C 52.4533,219.118 49.6199,218.451 46.5,219.5C 47.5063,220.396 47.5063,221.062 46.5,221.5C 44.8685,220.703 43.3685,219.703 42,218.5C 42.1781,220.44 41.1781,222.107 39,223.5C 38.5,223.333 38,223.167 37.5,223C 38.9561,222.577 39.4561,221.744 39,220.5C 37.119,221.354 35.2857,221.021 33.5,219.5C 31.8333,220.833 30.1667,220.833 28.5,219.5C 27.52,222.086 27.1866,224.753 27.5,227.5C 25.3615,219.088 24.0281,210.421 23.5,201.5C 23.3398,199.801 23.5065,198.134 24,196.5C 24.414,196.957 24.914,197.291 25.5,197.5C 27.0009,196.248 28.6675,195.248 30.5,194.5C 31.5896,195.391 31.5896,196.391 30.5,197.5C 33.1998,200.075 34.5332,199.742 34.5,196.5C 36.0603,196.481 37.5603,196.148 39,195.5C 40.0588,195.63 40.8921,196.13 41.5,197C 39.5,197.333 37.5,197.667 35.5,198C 36.8333,198.667 36.8333,199.333 35.5,200C 37.1346,200.54 38.4679,200.04 39.5,198.5C 41.8392,199.724 44.1725,199.724 46.5,198.5C 48.8324,196.332 51.499,194.665 54.5,193.5C 58.1811,194.27 61.8478,195.103 65.5,196C 60.4055,197.458 60.7389,198.291 66.5,198.5C 66.3433,197.127 66.51,195.793 67,194.5C 68,195.833 69,195.833 70,194.5C 69.654,197.328 68.154,199.495 65.5,201C 66.9174,203.826 68.4174,203.993 70,201.5C 70.2189,202.938 70.7189,204.271 71.5,205.5C 72.6956,205.154 72.6956,204.654 71.5,204C 74.6909,203.155 77.5243,201.655 80,199.5C 81.4651,198.67 82.9651,198.504 84.5,199C 85.4506,199.718 85.6172,200.551 85,201.5C 80.8882,202.547 80.8882,204.214 85,206.5C 86.4605,203.765 87.6272,200.932 88.5,198C 89.1667,197.333 89.8333,197.333 90.5,198C 89.3044,198.654 89.3044,199.154 90.5,199.5C 91.7362,198.754 93.0695,198.421 94.5,198.5C 94.5,199.833 94.5,201.167 94.5,202.5 Z"/></g>
<g><path style="opacity:0.388" fill="#f2d1aa" d="M 177.5,194.5 C 177.074,203.334 176.407,212.001 175.5,220.5C 175.5,218.833 175.5,217.167 175.5,215.5C 175.5,212.5 175.5,209.5 175.5,206.5C 175.344,202.236 176.011,198.236 177.5,194.5 Z"/></g>
<g><path style="opacity:1" fill="#a37d6f" d="M 195.5,197.5 C 195.5,199.833 195.5,202.167 195.5,204.5C 196.13,212.243 195.463,219.576 193.5,226.5C 193.5,226.167 193.5,225.833 193.5,225.5C 194.491,219.021 194.824,212.354 194.5,205.5C 194.194,202.615 194.527,199.948 195.5,197.5 Z"/></g>
<g><path style="opacity:0.675" fill="#d4ab96" d="M 94.5,202.5 C 94.8333,202.5 95.1667,202.5 95.5,202.5C 95.0217,205.278 96.0217,207.278 98.5,208.5C 99.1757,207.398 99.8423,206.398 100.5,205.5C 100.283,211.36 99.6165,217.027 98.5,222.5C 98.665,219.15 98.4983,215.817 98,212.5C 97.7679,213.737 97.2679,214.737 96.5,215.5C 96.2865,213.856 96.6198,212.356 97.5,211C 94.8748,208.804 93.8748,205.97 94.5,202.5 Z"/></g>
<g><path style="opacity:1" fill="#672012" d="M 189.5,183.5 C 189.833,183.5 190.167,183.5 190.5,183.5C 190.334,189.176 190.501,194.843 191,200.5C 191.223,202.881 192.39,204.547 194.5,205.5C 194.824,212.354 194.491,219.021 193.5,225.5C 193.092,222.802 191.926,220.469 190,218.5C 189.5,207.505 189.333,196.505 189.5,185.5C 189.5,184.833 189.5,184.167 189.5,183.5 Z"/></g>
<g><path style="opacity:1" fill="#e9bb89" d="M 195.5,204.5 C 195.833,204.5 196.167,204.5 196.5,204.5C 196.5,207.5 196.5,210.5 196.5,213.5C 196.5,218.833 196.5,224.167 196.5,229.5C 195.167,228.833 194.167,227.833 193.5,226.5C 195.463,219.576 196.13,212.243 195.5,204.5 Z"/></g>
<g><path style="opacity:0.992" fill="#94513d" d="M 98.5,222.5 C 98.7678,224.099 98.4345,225.432 97.5,226.5C 96.5184,223.038 96.185,219.371 96.5,215.5C 97.2679,214.737 97.7679,213.737 98,212.5C 98.4983,215.817 98.665,219.15 98.5,222.5 Z"/></g>
<g><path style="opacity:1" fill="#f38e29" d="M 175.5,206.5 C 175.5,209.5 175.5,212.5 175.5,215.5C 174.661,221.675 173.994,228.008 173.5,234.5C 160.522,235.568 147.522,235.734 134.5,235C 133.944,234.617 133.611,234.117 133.5,233.5C 133.027,232.094 132.027,231.427 130.5,231.5C 128.973,231.573 127.973,230.906 127.5,229.5C 127.5,221.167 127.5,212.833 127.5,204.5C 128.467,203.194 129.801,202.527 131.5,202.5C 131.351,203.552 131.517,204.552 132,205.5C 133,202.833 134,202.833 135,205.5C 135.249,204.376 135.749,203.376 136.5,202.5C 139.328,204.633 142.494,205.966 146,206.5C 146.56,202.274 148.893,199.607 153,198.5C 153,199.833 153,201.167 153,202.5C 157.101,203.656 157.268,204.823 153.5,206C 155.112,206.72 156.612,206.554 158,205.5C 158.333,206.167 158.667,206.833 159,207.5C 161.179,205.652 163.013,203.485 164.5,201C 166.493,201.232 168.326,201.065 170,200.5C 170.456,201.744 169.956,202.577 168.5,203C 169.416,203.374 170.25,203.874 171,204.5C 172.073,203.72 173.24,203.887 174.5,205C 172.068,206.087 172.402,206.587 175.5,206.5 Z"/></g>
<g><path style="opacity:1" fill="#f38e2c" d="M 95.5,215.5 C 95.2401,221.172 94.9068,226.839 94.5,232.5C 84.5027,235.54 74.1694,236.707 63.5,236C 62.1437,233.602 60.9771,231.102 60,228.5C 59.2917,227.619 58.4584,226.953 57.5,226.5C 56.8106,225.226 55.9772,225.226 55,226.5C 53.9914,228.025 53.4914,229.692 53.5,231.5C 45.2004,232.371 36.8671,232.705 28.5,232.5C 27.5489,231.081 27.2155,229.415 27.5,227.5C 27.1866,224.753 27.52,222.086 28.5,219.5C 30.1667,220.833 31.8333,220.833 33.5,219.5C 35.2857,221.021 37.119,221.354 39,220.5C 39.4561,221.744 38.9561,222.577 37.5,223C 38,223.167 38.5,223.333 39,223.5C 41.1781,222.107 42.1781,220.44 42,218.5C 43.3685,219.703 44.8685,220.703 46.5,221.5C 47.5063,221.062 47.5063,220.396 46.5,219.5C 49.6199,218.451 52.4533,219.118 55,221.5C 55.5,221 56,220.5 56.5,220C 54.6472,218.269 53.9805,216.436 54.5,214.5C 55.624,215.914 56.624,217.414 57.5,219C 58.7659,219.309 59.9326,219.809 61,220.5C 61.3333,220.167 61.6667,219.833 62,219.5C 61.5771,221.387 61.7437,223.387 62.5,225.5C 65.0889,226.438 67.5889,226.771 70,226.5C 70.5,225.333 71.3333,224.5 72.5,224C 71.1021,221.264 69.4354,221.431 67.5,224.5C 66.5,224.167 65.8333,223.5 65.5,222.5C 67.1932,221.772 68.6932,220.772 70,219.5C 70.414,219.957 70.914,220.291 71.5,220.5C 73.2913,219.076 75.1246,217.742 77,216.5C 78.5044,218.452 80.3377,219.618 82.5,220C 81.3507,218.396 81.3507,216.73 82.5,215C 82.0556,213.238 81.5556,213.405 81,215.5C 80.51,214.207 80.3433,212.873 80.5,211.5C 83.0495,211.561 84.5495,212.894 85,215.5C 86.7165,214.448 87.7165,215.114 88,217.5C 89.0875,215.068 89.5875,215.402 89.5,218.5C 91.3588,218.539 92.6921,217.706 93.5,216C 92.8333,215.667 92.1667,215.333 91.5,215C 93.0657,214.235 94.3991,214.402 95.5,215.5 Z"/></g>
<g><path style="opacity:1" fill="#f38f26" d="M 241.5,206.5 C 241.5,210.5 241.5,214.5 241.5,218.5C 240.127,218.343 238.793,218.51 237.5,219C 238.684,220.145 238.684,221.312 237.5,222.5C 230.097,234.367 219.431,238.534 205.5,235C 203.942,234.79 202.609,234.29 201.5,233.5C 201.027,232.094 200.027,231.427 198.5,231.5C 197.5,231.167 196.833,230.5 196.5,229.5C 196.5,224.167 196.5,218.833 196.5,213.5C 197.239,213.631 197.906,213.464 198.5,213C 195.579,205.254 197.912,202.921 205.5,206C 203.405,206.556 203.238,207.056 205,207.5C 207.533,205.104 208.033,205.771 206.5,209.5C 207,209.833 207.5,210.167 208,210.5C 209.152,208.488 210.318,208.322 211.5,210C 216.182,210.773 216.515,210.107 212.5,208C 214.246,207.529 215.913,206.862 217.5,206C 215.481,205.55 213.648,204.717 212,203.5C 210.455,204.821 209.289,204.488 208.5,202.5C 210.22,201.08 212.054,199.747 214,198.5C 214.617,199.449 214.451,200.282 213.5,201C 214.047,201.925 214.713,202.758 215.5,203.5C 218.102,202.346 220.768,201.846 223.5,202C 221.913,202.862 220.246,203.529 218.5,204C 220.303,207.071 222.137,206.904 224,203.5C 224.507,204.996 224.007,206.163 222.5,207C 225.207,207.328 227.874,206.995 230.5,206C 229.692,205.692 229.025,205.192 228.5,204.5C 230.898,203.276 233.231,203.442 235.5,205C 234.833,205.333 234.167,205.667 233.5,206C 234.579,206.956 235.745,207.789 237,208.5C 238.587,208.658 240.087,207.991 241.5,206.5 Z"/></g>
<g><path style="opacity:1" fill="#caa082" d="M 95.5,215.5 C 95.8333,215.5 96.1667,215.5 96.5,215.5C 96.185,219.371 96.5184,223.038 97.5,226.5C 97.539,229.089 96.539,231.089 94.5,232.5C 94.9068,226.839 95.2401,221.172 95.5,215.5 Z"/></g>
<g><path style="opacity:0.6" fill="#ce9b7e" d="M 57.5,226.5 C 56.1363,228.191 54.803,229.858 53.5,231.5C 53.4914,229.692 53.9914,228.025 55,226.5C 55.9772,225.226 56.8106,225.226 57.5,226.5 Z"/></g>
<g><path style="opacity:0.592" fill="#f2bd87" d="M 175.5,215.5 C 175.5,217.167 175.5,218.833 175.5,220.5C 175.665,224.182 175.499,227.848 175,231.5C 174.768,232.737 174.268,233.737 173.5,234.5C 173.994,228.008 174.661,221.675 175.5,215.5 Z"/></g>
<g><path style="opacity:0.676" fill="#f5a75c" d="M 53.5,231.5 C 53.3893,232.117 53.056,232.617 52.5,233C 44.3225,233.823 36.3225,233.656 28.5,232.5C 36.8671,232.705 45.2004,232.371 53.5,231.5 Z"/></g>
<g><path style="opacity:0.522" fill="#fac38d" d="M 130.5,231.5 C 132.027,231.427 133.027,232.094 133.5,233.5C 131.973,233.573 130.973,232.906 130.5,231.5 Z"/></g>
<g><path style="opacity:0.427" fill="#f9c390" d="M 198.5,231.5 C 200.027,231.427 201.027,232.094 201.5,233.5C 199.973,233.573 198.973,232.906 198.5,231.5 Z"/></g>
</svg>
